<svg width="18" height="18" viewBox="0 0 18 18" fill="none" xmlns="http://www.w3.org/2000/svg">
<path d="M8.9957 0.421875C4.25664 0.425391 0.421094 4.26445 0.414062 9C0.885156 20.3836 17.1027 20.3801 17.5738 9C17.5668 4.26445 13.7312 0.425391 8.9957 0.421875ZM8.9957 16.9664C4.59766 16.9629 1.03281 13.398 1.02578 9C1.46172 -1.56797 16.5227 -1.56797 16.9586 9C16.9551 13.398 13.3937 16.9629 8.9957 16.9664Z" fill="black"/>
<path d="M7.48398 7.01328C7.48398 7.0625 7.48047 7.1082 7.47695 7.14688C7.46992 7.18555 7.46289 7.21367 7.45234 7.23828C7.4418 7.25937 7.42422 7.27695 7.40664 7.2875C7.38906 7.29805 7.37148 7.30508 7.35039 7.30508H5.89492V11.791C5.89492 11.8121 5.88789 11.8297 5.87734 11.8473C5.8668 11.8648 5.84922 11.8754 5.82109 11.8859C5.79297 11.8965 5.75781 11.9035 5.71563 11.9105C5.66992 11.9176 5.61719 11.9211 5.55039 11.9211C5.48711 11.9211 5.43086 11.9176 5.38516 11.9105C5.33945 11.9035 5.3043 11.8965 5.27617 11.8859C5.24805 11.8754 5.23047 11.8648 5.21992 11.8473C5.20937 11.8297 5.20234 11.8121 5.20234 11.791V7.30156H3.74687C3.72578 7.30156 3.70469 7.29453 3.69062 7.28398C3.67305 7.27344 3.65898 7.25586 3.64844 7.23477C3.63789 7.21367 3.62734 7.18203 3.62383 7.14336C3.6168 7.10469 3.61328 7.0625 3.61328 7.00977C3.61328 6.96055 3.6168 6.91484 3.62383 6.87617C3.63086 6.8375 3.63789 6.80586 3.64844 6.78125C3.65898 6.75664 3.67305 6.73906 3.69062 6.72852C3.7082 6.71797 3.72578 6.71094 3.74687 6.71094H7.34687C7.36797 6.71094 7.38906 6.71797 7.40313 6.72852C7.4207 6.73906 7.43477 6.75664 7.44883 6.78125C7.45937 6.80586 7.46992 6.8375 7.47344 6.87617C7.48047 6.91836 7.48398 6.96406 7.48398 7.01328Z" fill="black"/>
<path d="M13.8559 11.7883C13.8559 11.8094 13.8488 11.827 13.8383 11.8445C13.8277 11.8621 13.8066 11.8727 13.782 11.8832C13.7539 11.8937 13.7188 11.9008 13.6766 11.9078C13.6344 11.9148 13.5781 11.9184 13.5113 11.9184C13.448 11.9184 13.3953 11.9148 13.3496 11.9078C13.3039 11.9008 13.2687 11.8937 13.2441 11.8832C13.2195 11.8727 13.1984 11.8621 13.1879 11.8445C13.1773 11.827 13.1703 11.8094 13.1703 11.7883V7.28125H13.1633L11.3387 11.8094C11.3316 11.827 11.3176 11.8445 11.3035 11.8586C11.2895 11.8727 11.2684 11.8832 11.2402 11.8937C11.2121 11.9043 11.1805 11.9113 11.1418 11.9148C11.1031 11.9184 11.0574 11.9219 11.0047 11.9219C10.9484 11.9219 10.8992 11.9184 10.8605 11.9148C10.8219 11.9078 10.7867 11.9008 10.7621 11.8937C10.7375 11.8867 10.7164 11.8727 10.6988 11.8586C10.6848 11.8445 10.6742 11.8305 10.6672 11.8129L8.92344 7.28477H8.91992V11.7918C8.91992 11.8129 8.91289 11.8305 8.90234 11.848C8.8918 11.8656 8.8707 11.8762 8.84609 11.8867C8.81797 11.8973 8.78281 11.9043 8.74062 11.9113C8.69844 11.9184 8.63867 11.9219 8.57187 11.9219C8.50508 11.9219 8.45234 11.9184 8.40664 11.9113C8.36445 11.9043 8.3293 11.8973 8.30117 11.8867C8.27656 11.8762 8.25898 11.8656 8.24844 11.848C8.23789 11.8305 8.23438 11.8129 8.23438 11.7918V7.02812C8.23438 6.91562 8.2625 6.83477 8.32227 6.78906C8.38203 6.73984 8.44883 6.71875 8.52266 6.71875H8.94453C9.03242 6.71875 9.10625 6.72578 9.17305 6.74336C9.23984 6.76094 9.29609 6.78555 9.34531 6.8207C9.39453 6.85586 9.4332 6.89805 9.46836 6.9543C9.5 7.00703 9.52812 7.07031 9.55273 7.14062L11.0328 10.8883H11.0539L12.5832 7.15117C12.6113 7.07031 12.6465 7.00352 12.6816 6.94727C12.7168 6.89102 12.7555 6.84531 12.7977 6.81367C12.8398 6.78203 12.8855 6.75742 12.9383 6.74336C12.991 6.7293 13.0508 6.72227 13.1176 6.72227H13.5605C13.6027 6.72227 13.6414 6.7293 13.6766 6.73984C13.7117 6.75039 13.7434 6.77148 13.7715 6.79609C13.7961 6.8207 13.8172 6.85234 13.8348 6.89102C13.8523 6.92969 13.8594 6.97539 13.8594 7.03164V11.7883H13.8559Z" fill="black"/>
</svg>
