<svg width="19" height="18" viewBox="0 0 19 18" fill="none" xmlns="http://www.w3.org/2000/svg">
<path d="M11.0353 7.32897L8.33078 9.88343L7.03281 8.5481C6.88892 8.39996 6.65198 8.39659 6.50399 8.54048C6.35584 8.68452 6.35247 8.92131 6.49637 9.06946L8.0531 10.6675C8.19773 10.813 8.43144 10.818 8.58208 10.6787L11.5568 7.87289C11.629 7.80475 11.6712 7.71068 11.674 7.61148C11.6768 7.51228 11.64 7.41601 11.5717 7.34392C11.427 7.19343 11.1883 7.18684 11.0353 7.32897Z" fill="black"/>
<path d="M9.02997 3.39844C5.93907 3.39844 3.42578 5.91172 3.42578 9.00263C3.42578 12.0937 5.93907 14.607 9.02997 14.607C12.121 14.607 14.6343 12.0937 14.6343 9.00263C14.6343 5.91172 12.121 3.39844 9.02997 3.39844ZM9.02997 13.8567C6.3517 13.8567 4.17602 11.6772 4.17602 9.00263C4.17602 6.32802 6.3517 4.14867 9.02997 4.14867C11.7109 4.14867 13.8841 6.32186 13.8841 9.00263C13.8841 11.6834 11.7109 13.8567 9.02997 13.8567Z" fill="black"/>
<path d="M16.7409 6.9378L16.8647 4.71333C16.8733 4.56401 16.7921 4.42378 16.6584 4.35697L14.6777 3.35543L13.6762 1.37478C13.608 1.24217 13.4687 1.16143 13.3198 1.16847L11.0915 1.28862L9.2347 0.0618724C9.10956 -0.0206241 8.94735 -0.0206241 8.82207 0.0618724L6.96524 1.28862L4.74091 1.16481C4.59145 1.15601 4.45137 1.23719 4.38455 1.37112L3.38287 3.35177L1.40237 4.3533C1.26961 4.42129 1.18902 4.56064 1.19606 4.70966L1.31973 6.93414L0.0931224 8.79097C0.0106259 8.9161 0.0106259 9.07831 0.0931224 9.2036L1.31606 11.0641L1.19225 13.2886C1.1836 13.4379 1.26463 13.5781 1.39856 13.6449L3.37921 14.6465L4.38074 16.6271C4.44873 16.7599 4.58808 16.8405 4.7371 16.8334L6.96158 16.7096L8.81841 17.9362C8.94281 18.0213 9.10663 18.0213 9.23104 17.9362L11.0879 16.7096L13.3123 16.8334C13.4617 16.8421 13.6017 16.7609 13.6687 16.6271L14.6702 14.6465L16.6509 13.6449C16.7835 13.5768 16.8642 13.4376 16.8572 13.2886L16.7334 11.0641L17.96 9.20726C18.0425 9.08212 18.0425 8.91977 17.96 8.79463L16.7409 6.9378ZM16.0431 10.7565C15.9974 10.8236 15.9761 10.9044 15.9831 10.9854L16.0993 13.0897L14.2276 14.035C14.1562 14.0707 14.0983 14.1288 14.0626 14.2001L13.1172 16.0719L11.0128 15.9557C10.9323 15.9528 10.8527 15.9736 10.784 16.0156L9.02839 17.1748L7.27295 16.0156C7.212 15.9745 7.1402 15.9522 7.06664 15.9519H7.04788L4.94342 16.0682L3.99815 14.1963C3.9624 14.125 3.90452 14.0671 3.83301 14.0313L1.95743 13.0897L2.07377 10.9854C2.0767 10.9048 2.05575 10.8252 2.01369 10.7565L0.85464 9.00095L2.01369 7.24537C2.05956 7.1784 2.0808 7.09752 2.07377 7.01663L1.95743 4.91217L3.82935 3.9669C3.90071 3.93115 3.95859 3.87327 3.99434 3.80191L4.93961 1.92999L7.04407 2.04633C7.12452 2.04911 7.20409 2.02831 7.27295 1.98625L9.02839 0.827199L10.784 1.98625C10.8511 2.03212 10.932 2.05336 11.0128 2.04633L13.1172 1.92999L14.0626 3.80191C14.0983 3.87327 14.1562 3.93115 14.2276 3.9669L16.0993 4.91217L15.9831 7.01663C15.9802 7.09708 16.0012 7.17664 16.0431 7.24537L17.2023 9.00095L16.0431 10.7565Z" fill="black"/>
</svg>
