<svg width="18" height="16" viewBox="0 0 18 16" fill="none" xmlns="http://www.w3.org/2000/svg">
<path d="M17.2976 0.0234375H3.07317C2.69268 0.0234375 2.37073 0.330755 2.37073 0.725877V2.39417H0.702439C0.307317 2.39417 0 2.70149 0 3.09661V15.2722C0 15.6527 0.307317 15.9747 0.702439 15.9747H14.9268C15.3073 15.9747 15.6293 15.6673 15.6293 15.2722V13.6039H17.2976C17.678 13.6039 18 13.2966 18 12.9015V0.725877C18 0.330755 17.6927 0.0234375 17.2976 0.0234375ZM3.07317 0.608803H17.2976C17.3561 0.608803 17.4146 0.652706 17.4146 0.725877V2.74539H2.9561V0.725877C2.9561 0.652706 3.01463 0.608803 3.07317 0.608803ZM0.702439 2.97954H2.37073V5.11612H0.585366V3.09661C0.585366 3.03807 0.629268 2.97954 0.702439 2.97954ZM15.0439 15.2722C15.0439 15.3308 15 15.3893 14.9268 15.3893H0.702439C0.643902 15.3893 0.585366 15.3454 0.585366 15.2722V5.70149H2.37073V12.9015C2.37073 13.282 2.67805 13.6039 3.07317 13.6039H15.0439V15.2722ZM17.2976 13.0186H3.07317C3.01463 13.0186 2.9561 12.9747 2.9561 12.9015V3.33075H17.4146V12.9015C17.4146 12.96 17.3707 13.0186 17.2976 13.0186Z" fill="#010101"/>
<path d="M5.4303 1.91349H4.34737C4.18639 1.91349 4.05469 1.78178 4.05469 1.62081C4.05469 1.45983 4.18639 1.32812 4.34737 1.32812H5.4303C5.59127 1.32812 5.72298 1.45983 5.72298 1.62081C5.72298 1.78178 5.59127 1.91349 5.4303 1.91349Z" fill="#010101"/>
<path d="M7.90295 1.91349H6.82003C6.65905 1.91349 6.52734 1.78178 6.52734 1.62081C6.52734 1.45983 6.65905 1.32812 6.82003 1.32812H7.90295C8.06393 1.32812 8.19564 1.45983 8.19564 1.62081C8.19564 1.78178 8.06393 1.91349 7.90295 1.91349Z" fill="#010101"/>
<path d="M5.69141 8.20526L8.47189 9.63941V9.08331L6.33531 8.01502L8.47189 6.94672V6.39062L5.69141 7.81014V8.20526Z" fill="black"/>
<path d="M9.08594 9.81421H9.61277L11.2518 5.57031H10.7103L9.08594 9.81421Z" fill="black"/>
<path d="M11.8555 6.39062V6.94672L14.0067 8.01502L11.8555 9.08331V9.63941L14.636 8.20526V7.81014L11.8555 6.39062Z" fill="black"/>
</svg>
