<svg width="16" height="16" viewBox="0 0 16 16" fill="none" xmlns="http://www.w3.org/2000/svg">
<path d="M9.54284 9.54284C8.28574 10.84 8.19426 12.4572 8.08574 16C11.3886 16 13.6686 15.9886 14.8457 14.8457C15.9886 13.6686 16 11.28 16 8.08574C12.4572 8.2 10.84 8.28574 9.54284 9.54284ZM0 8.08574C0 11.28 0.0114194 13.6686 1.15426 14.8457C2.33142 15.9886 4.61142 16 7.91426 16C7.8 12.4572 7.71426 10.84 6.45716 9.54284C5.16 8.28574 3.54284 8.19426 0 8.08574ZM7.91426 0C4.61716 0 2.33142 0.0114194 1.15426 1.15426C0.0114194 2.33142 0 4.72 0 7.91426C3.54284 7.8 5.16 7.71426 6.45716 6.45716C7.71426 5.16 7.80574 3.54284 7.91426 0ZM9.54284 6.45716C8.28574 5.16 8.19426 3.54284 8.08574 0C11.3886 0 13.6686 0.0114194 14.8457 1.15426C15.9886 2.33142 16 4.72 16 7.91426C12.4572 7.8 10.84 7.71426 9.54284 6.45716Z" fill="#B8B9BE"/>
<path d="M16 8.08574V7.91426C12.4572 7.8 10.84 7.71426 9.54284 6.45716C8.28574 5.16 8.19426 3.54284 8.08574 0H7.91426C7.8 3.54284 7.71426 5.16 6.45716 6.45716C5.16 7.71426 3.54284 7.80574 0 7.91426V8.08574C3.54284 8.2 5.16 8.28574 6.45716 9.54284C7.71426 10.84 7.80574 12.4572 7.91426 16H8.08574C8.2 12.4572 8.28574 10.84 9.54284 9.54284C10.84 8.28574 12.4572 8.19426 16 8.08574Z" fill="white"/>
</svg>
