<svg width="16" height="16" viewBox="0 0 16 16" fill="none" xmlns="http://www.w3.org/2000/svg">
<path d="M15.6222 4.2002C15.4392 3.52009 14.903 2.98401 14.223 2.80083C12.9807 2.46094 8.01157 2.46094 8.01157 2.46094C8.01157 2.46094 3.04258 2.46094 1.80025 2.78803C1.13337 2.97088 0.58406 3.5202 0.401203 4.2002C0.0742187 5.44242 0.0742188 8.0185 0.0742188 8.0185C0.0742188 8.0185 0.0742187 10.6076 0.401203 11.8367C0.584272 12.5167 1.12025 13.0529 1.80036 13.236C3.05559 13.576 8.01179 13.576 8.01179 13.576C8.01179 13.576 12.9807 13.576 14.223 13.249C14.9031 13.0659 15.4392 12.5298 15.6224 11.8498C15.9491 10.6076 15.9491 8.03152 15.9491 8.03152C15.9491 8.03152 15.9623 5.44242 15.6222 4.2002ZM6.42946 10.3984V5.63861L10.5615 8.0185L6.42946 10.3984Z" fill="#B8B9BE"/>
</svg>
