<svg width="16" height="16" viewBox="0 0 16 16" fill="none" xmlns="http://www.w3.org/2000/svg">
<path d="M11.1344 2.13281H0.734375V13.3328H3.60104V9.66615H9.13437L11.6677 13.3328H14.9344L12.1344 9.66615C13.001 9.53281 13.601 9.19948 14.001 8.73281C14.401 8.19948 14.601 7.39948 14.601 6.33281V5.46615C14.601 4.79948 14.5344 4.33281 14.401 3.93281C14.2677 3.53281 14.0677 3.19948 13.801 2.93281C13.4677 2.66615 13.1344 2.46615 12.7344 2.33281C12.2677 2.19948 11.7344 2.13281 11.1344 2.13281ZM10.6677 7.19948H3.60104V4.59948H10.6677C11.0677 4.59948 11.3344 4.66615 11.4677 4.79948C11.601 4.93281 11.6677 5.13281 11.6677 5.46615V6.39948C11.6677 6.73281 11.601 6.93281 11.4677 7.06615C11.3344 7.13281 11.0677 7.19948 10.6677 7.19948Z" fill="#B8B9BE"/>
<path d="M14.5349 2.73385C15.0682 2.73385 15.4682 2.33385 15.4682 1.80052C15.4682 1.26719 15.0682 0.867188 14.5349 0.867188C14.0016 0.867188 13.6016 1.26719 13.6016 1.80052C13.6016 2.33385 14.0016 2.73385 14.5349 2.73385Z" fill="#B8B9BE"/>
</svg>
