<svg width="132" height="125" viewBox="0 0 132 125" fill="none" xmlns="http://www.w3.org/2000/svg">
<path d="M17.0729 124.167L18.625 111.75H43.924L50.1323 86.9167H62.549L71.8615 49.6667H26.3854L29.4896 24.8333H52.7708C53.5986 17.0729 56.2641 10.995 60.7672 6.59946C65.2703 2.20396 71.4 0.00413889 79.1562 0C85.7785 0 91.2894 2.4585 95.689 7.3755C100.089 12.2925 102.235 18.1118 102.127 24.8333H131.927L119.51 124.167H17.0729ZM0 99.3333L3.10417 86.9167H37.25L34.1458 99.3333H0ZM12.4167 74.5L15.5208 62.0833H55.875L52.7708 74.5H12.4167ZM65.1875 24.8333H89.8656C89.9691 21.4188 88.8061 18.4967 86.3765 16.0672C83.947 13.6376 81.0229 12.4208 77.6042 12.4167C73.9826 12.4167 71.1103 13.53 68.987 15.7568C66.8637 17.9835 65.5973 21.009 65.1875 24.8333Z" fill="#404040"/>
</svg>
