<svg width="122" height="122" viewBox="0 0 122 122" fill="none" xmlns="http://www.w3.org/2000/svg">
<path fill-rule="evenodd" clip-rule="evenodd" d="M82.5198 36.6522C83.3411 37.1079 84.0645 37.721 84.6488 38.4563C85.2331 39.1917 85.6667 40.035 85.925 40.938C86.1833 41.841 86.2612 42.7861 86.1541 43.7192C86.0471 44.6523 85.7572 45.5552 85.3011 46.3762L65.4384 82.1262C64.9821 82.9469 64.3686 83.6696 63.633 84.2531C62.8973 84.8367 62.0539 85.2696 61.151 85.5272C59.3274 86.0475 57.3718 85.822 55.7144 84.9004C54.8938 84.4441 54.1711 83.8306 53.5875 83.095C53.004 82.3593 52.571 81.5159 52.3134 80.613C51.7932 78.7894 52.0186 76.8338 52.9402 75.1764L72.7958 39.4264C73.2521 38.6058 73.8656 37.883 74.6012 37.2994C75.3369 36.7159 76.1802 36.2829 77.0832 36.0253C77.9862 35.7677 78.931 35.6905 79.8638 35.798C80.7967 35.9056 81.6992 36.1959 82.5198 36.6522Z" fill="#404040"/>
<path fill-rule="evenodd" clip-rule="evenodd" d="M33.7498 58.2952C34.9345 56.8158 36.6581 55.8673 38.5418 55.6582C40.4255 55.449 42.3152 55.9963 43.7955 57.1798L63.6582 73.0671C64.3915 73.654 65.0021 74.3795 65.455 75.2023C65.9079 76.0251 66.1944 76.9291 66.2979 77.8626C66.4015 78.7961 66.3202 79.7408 66.0587 80.6429C65.7971 81.545 65.3605 82.3867 64.7736 83.12C64.1868 83.8534 63.4612 84.4639 62.6384 84.9168C61.8156 85.3698 60.9117 85.6562 59.9782 85.7598C59.0447 85.8633 58.0999 85.782 57.1978 85.5205C56.2958 85.2589 55.454 84.8223 54.7207 84.2354L34.858 68.3481C34.1245 67.7615 33.5137 67.036 33.0606 66.2132C32.6075 65.3904 32.321 64.4864 32.2174 63.5528C32.1139 62.6192 32.1952 61.6744 32.4569 60.7723C32.7186 59.8701 33.1627 59.0284 33.7498 58.2952Z" fill="#404040"/>
<path fill-rule="evenodd" clip-rule="evenodd" d="M64.1369 15.6742C63.2529 14.7966 62.0578 14.3041 60.8121 14.3041C59.5665 14.3041 58.3714 14.7966 57.4874 15.6742C51.0023 22.1521 40.6205 26.1418 31.49 25.6842C30.8313 25.645 30.1718 25.7465 29.5554 25.982C28.939 26.2174 28.3798 26.5815 27.915 27.0498C27.4653 27.4959 27.1116 28.0292 26.8756 28.6169C26.6395 29.2046 26.526 29.8344 26.5422 30.4675C26.6423 35.6155 25.3481 40.7564 23.6464 44.982C21.9447 49.2148 19.3135 53.8123 15.6742 57.4588C14.7966 58.3428 14.3041 59.5379 14.3041 60.7835C14.3041 62.0292 14.7966 63.2243 15.6742 64.1083C22.0591 70.5004 26.3563 80.5604 26.5422 89.6052C26.5614 90.818 27.0541 91.9753 27.915 92.8298C28.7358 93.6589 29.8384 94.1489 31.0038 94.2026C36.0445 94.4529 41.0567 95.9401 45.2537 97.7991C49.4579 99.6652 53.9195 102.382 57.4802 105.95C58.3642 106.828 59.5593 107.32 60.805 107.32C62.0506 107.32 63.2457 106.828 64.1297 105.95C67.6976 102.382 72.1592 99.6652 76.3562 97.7991C80.5604 95.9401 85.5797 94.4529 90.6062 94.2026C91.7716 94.1489 92.8742 93.6589 93.695 92.8298C94.5585 91.9764 95.0538 90.819 95.0749 89.6052C95.2608 80.5604 99.558 70.5004 105.943 64.1083C106.821 63.2243 107.313 62.0292 107.313 60.7835C107.313 59.5379 106.821 58.3428 105.943 57.4588C102.296 53.8123 99.6724 49.2148 97.9707 44.982C96.269 40.7564 94.9677 35.6155 95.0749 30.4675C95.0901 29.8339 94.9756 29.2038 94.7383 28.616C94.5009 28.0283 94.1459 27.4953 93.695 27.0498C93.2316 26.5811 92.6739 26.2163 92.0587 25.9796C91.4436 25.7429 90.7852 25.6398 90.1271 25.677C80.9894 26.1418 70.6076 22.1521 64.1369 15.6742ZM12.2493 30.7464C12.3566 36.1732 9.40363 43.5091 5.56408 47.3415C2.00127 50.9078 0 55.7425 0 60.7835C0 65.8245 2.00127 70.6593 5.56408 74.2255C9.35358 78.0007 12.1421 84.5501 12.2493 89.8983C12.3494 94.6316 14.2013 99.3363 17.812 102.94C21.1433 106.278 25.5997 108.254 30.3102 108.481C35.9659 108.767 43.3733 112.056 47.3773 116.06C50.9432 119.621 55.7765 121.621 60.8157 121.621C65.8549 121.621 70.6882 119.621 74.2541 116.06C78.2581 112.056 85.6655 108.767 91.3212 108.481C96.0317 108.254 100.488 106.278 103.819 102.94C107.289 99.4753 109.28 94.8006 109.375 89.8983C109.489 84.5501 112.278 78.0007 116.06 74.2184C119.621 70.6525 121.621 65.8192 121.621 60.78C121.621 55.7407 119.621 50.9075 116.06 47.3415C112.228 43.5091 109.268 36.1732 109.382 30.7535C109.436 28.1947 108.971 25.6514 108.015 23.2772C107.059 20.9031 105.632 18.7472 103.819 16.9397C101.941 15.0567 99.6879 13.5901 97.2056 12.6354C94.7234 11.6807 92.068 11.2593 89.4121 11.3985C84.307 11.6559 77.8649 9.18198 74.2541 5.56408C70.6879 2.00127 65.8531 0 60.8121 0C55.7711 0 50.9364 2.00127 47.3701 5.56408C43.7665 9.17483 37.3172 11.6559 32.2121 11.3985C29.5575 11.2603 26.9034 11.6823 24.4225 12.6369C21.9416 13.5916 19.6893 15.0576 17.812 16.9397C16.0008 18.7464 14.5741 20.901 13.6181 23.2739C12.6621 25.6468 12.1965 28.1887 12.2493 30.7464Z" fill="#404040"/>
</svg>
