<svg width="119" height="120" viewBox="0 0 119 120" fill="none" xmlns="http://www.w3.org/2000/svg">
<path d="M105.498 61.2549C105.498 60.4736 105.479 59.7021 105.439 58.9404L118.301 54.4287C118.174 49.5459 117.324 44.7119 115.771 40.083L100.801 40.9033C99.2349 37.7066 97.3048 34.7017 95.0488 31.9482L102.93 18.667C99.6952 15.0077 95.9332 11.8512 91.7676 9.30176L80.3125 20.0244C76.6177 18.1198 72.6823 16.7236 68.6133 15.874L66.0938 0.541992C61.2598 -0.180664 56.3574 -0.180664 51.5234 0.541992L49.6777 15.874C45.6738 16.7041 41.875 18.0615 38.3203 19.8486L26.543 9.74121C22.3791 12.2931 18.6173 15.4492 15.3809 19.1064L23.5352 31.6064C21.5322 34.0127 19.7754 36.6136 18.291 39.3701L2.53906 39.1748C0.986328 43.8037 0.136719 48.6475 0 53.5303L12.9688 57.4658C12.8711 58.7158 12.8027 59.9853 12.8027 61.2646C12.8027 64.0576 13.0664 66.792 13.5352 69.458L1.70898 79.1357C3.49609 83.6768 5.95703 87.9346 8.99414 91.7529L20.5078 86.8408C23.584 91.4759 27.4672 95.5211 31.9727 98.7842L28.9941 114.575C33.291 116.909 37.9004 118.589 42.6855 119.556L49.2773 106.538C52.4609 107.231 55.7617 107.603 59.1504 107.603C62.3145 107.603 65.4004 107.28 68.3887 106.685L75.625 119.565C80.4102 118.589 85.0293 116.909 89.3164 114.585L85.7324 99.2236C90.498 95.8838 94.5996 91.6748 97.8125 86.8213L109.307 91.1572C112.344 87.3389 114.805 83.0811 116.592 78.54L104.727 69.6436C105.225 66.9189 105.498 64.1162 105.498 61.2549ZM59.1504 90.6689C43.1934 90.6689 30.2637 77.7393 30.2637 61.7822C30.2637 45.8252 43.1934 32.8955 59.1504 32.8955C75.1074 32.8955 88.0371 45.8252 88.0371 61.7822C88.0371 77.7393 75.1074 90.6689 59.1504 90.6689Z" fill="#404040"/>
<path d="M59.1504 32.8857C43.1934 32.8857 30.2637 45.8154 30.2637 61.7725C30.2637 77.7295 43.1934 90.6592 59.1504 90.6592C75.1074 90.6592 88.0371 77.7295 88.0371 61.7725C88.0371 45.8154 75.1074 32.8857 59.1504 32.8857ZM59.0332 74.4775C52.0117 74.4775 46.2988 68.7744 46.2988 61.7432C46.2988 61.2451 46.3379 60.7568 46.3867 60.2783C46.8848 53.7256 52.3438 48.5596 59.0234 48.5596C65.7031 48.5596 71.1621 53.7256 71.6602 60.2783C71.7188 60.7568 71.7481 61.2451 71.7481 61.7432C71.7676 68.7744 66.0645 74.4775 59.0332 74.4775Z" fill="white"/>
<path d="M23.9163 52.8956C23.7014 52.8956 23.4768 52.8663 23.2522 52.8174C22.9056 52.7307 22.5796 52.5765 22.2928 52.3635C22.006 52.1506 21.764 51.8831 21.5807 51.5765C21.3975 51.2699 21.2765 50.9301 21.2249 50.5766C21.1732 50.2231 21.1917 49.8629 21.2795 49.5167C21.7385 47.671 22.3635 45.8546 23.1252 44.1163C23.2683 43.7888 23.4747 43.4928 23.7324 43.2453C23.9902 42.9978 24.2943 42.8036 24.6272 42.6738C24.9602 42.5441 25.3155 42.4814 25.6728 42.4892C26.0301 42.4971 26.3823 42.5755 26.7092 42.7198C28.0862 43.3253 28.7112 44.9268 28.1057 46.3038C27.4612 47.7686 26.9436 49.3018 26.553 50.8448C26.4025 51.4303 26.062 51.9493 25.5848 52.3204C25.1076 52.6916 24.5208 52.8938 23.9163 52.8956ZM30.3713 41.6651C29.8776 41.6636 29.3935 41.528 28.9708 41.273C28.5481 41.0179 28.2025 40.6529 27.9709 40.2168C27.7394 39.7807 27.6305 39.29 27.656 38.7969C27.6814 38.3039 27.8402 37.8269 28.1155 37.4171C31.8555 31.8675 37.128 27.5247 43.2912 24.9171C44.678 24.3311 46.2698 24.9756 46.8557 26.3624C46.9955 26.6912 47.069 27.0445 47.072 27.4018C47.075 27.7591 47.0074 28.1135 46.8732 28.4447C46.7389 28.7759 46.5406 29.0772 46.2895 29.3316C46.0385 29.5859 45.7398 29.7882 45.4104 29.9268C40.2149 32.125 35.7703 35.7858 32.6174 40.4639C32.0998 41.2452 31.2405 41.6651 30.3713 41.6651Z" fill="#404040"/>
</svg>
