<svg width="125" height="117" viewBox="0 0 125 117" fill="none" xmlns="http://www.w3.org/2000/svg">
<path d="M78.698 30.0222C78.1491 29.704 77.5426 29.4976 76.9135 29.4149C76.2844 29.3323 75.6452 29.3751 75.0328 29.5408C74.4203 29.7066 73.8468 29.9919 73.3452 30.3805C72.8436 30.7691 72.424 31.2531 72.1105 31.8047L44.443 79.6997C44.1247 80.2486 43.9183 80.8551 43.8357 81.4841C43.7531 82.1132 43.7959 82.7524 43.9616 83.3649C44.1273 83.9773 44.4127 84.5509 44.8013 85.0524C45.1898 85.554 45.6739 85.9737 46.2255 86.2872C46.9471 86.7275 47.7834 86.9433 48.628 86.9072C49.4739 86.9036 50.3044 86.6803 51.038 86.2591C51.7717 85.8379 52.3833 85.2334 52.813 84.5047L80.4805 36.6097C80.8094 36.0636 81.0244 35.4566 81.1127 34.8252C81.201 34.1939 81.1607 33.5512 80.9942 32.9358C80.8276 32.3204 80.5384 31.7451 80.1438 31.2444C79.7492 30.7437 79.2574 30.3279 78.698 30.0222ZM57.463 45.9872C57.6312 41.5724 56.0474 37.2702 53.0568 34.0183C50.0662 30.7664 45.9113 28.8285 41.498 28.6272C37.0779 28.8286 32.9153 30.7639 29.9124 34.0134C26.9095 37.263 25.3081 41.565 25.4555 45.9872C25.2873 50.4225 26.8792 54.7445 29.8844 58.0109C32.8895 61.2773 37.064 63.2233 41.498 63.4247C45.9253 63.2236 50.0922 61.2749 53.085 58.0061C56.0778 54.7373 57.6522 50.4151 57.463 45.9872ZM41.498 53.7372C39.6402 53.5223 37.9387 52.5937 36.7529 51.1476C35.5671 49.7015 34.9898 47.851 35.143 45.9872C34.9696 44.1191 35.5394 42.258 36.729 40.8072C37.9186 39.3565 39.6321 38.4331 41.498 38.2372C43.3581 38.4325 45.0645 39.3587 46.2417 40.8121C47.419 42.2655 47.9707 44.127 47.7755 45.9872C47.95 47.8432 47.3906 49.6938 46.2172 51.1424C45.0438 52.591 43.3498 53.5225 41.498 53.7372ZM83.503 52.8847C79.0896 53.086 74.9347 55.0239 71.9441 58.2758C68.9536 61.5277 67.3697 65.8299 67.538 70.2447C67.3487 74.6726 68.9231 78.9948 71.9159 82.2636C74.9087 85.5324 79.0756 87.4811 83.503 87.6822C87.9369 87.4809 92.1114 85.5348 95.1166 82.2684C98.1217 79.002 99.7137 74.68 99.5454 70.2447C99.6928 65.8225 98.0914 61.5205 95.0885 58.2709C92.0856 55.0214 87.923 53.0861 83.503 52.8847ZM83.503 77.9947C81.6511 77.78 79.9571 76.8485 78.7837 75.3999C77.6103 73.9513 77.0509 72.1007 77.2255 70.2447C77.0509 68.3887 77.6103 66.5381 78.7837 65.0895C79.9571 63.6409 81.6511 62.7094 83.503 62.4947C85.3688 62.6906 87.0823 63.614 88.2719 65.0647C89.4615 66.5155 90.0313 68.3766 89.8579 70.2447C90.0111 72.1086 89.4338 73.959 88.248 75.4051C87.0622 76.8512 85.3607 77.7798 83.503 77.9947Z" fill="#404040"/>
<path d="M62.5 0.0298266C46.5738 -0.471664 31.0995 5.36768 19.475 16.2657C7.85049 27.1637 1.02598 42.2294 0.5 58.1548C1.02598 74.0802 7.85049 89.146 19.475 100.044C31.0995 110.942 46.5738 116.781 62.5 116.28C78.4262 116.781 93.9005 110.942 105.525 100.044C117.15 89.146 123.974 74.0802 124.5 58.1548C123.974 42.2294 117.15 27.1637 105.525 16.2657C93.9005 5.36768 78.4262 -0.471664 62.5 0.0298266ZM62.5 106.592C49.1481 107.075 36.1485 102.25 26.345 93.1722C16.5415 84.0949 10.7321 71.5044 10.1875 58.1548C10.7321 44.8053 16.5415 32.2148 26.345 23.1375C36.1485 14.0601 49.1481 9.23491 62.5 9.71733C75.8519 9.23491 88.8515 14.0601 98.655 23.1375C108.458 32.2148 114.268 44.8053 114.812 58.1548C114.268 71.5044 108.458 84.0949 98.655 93.1722C88.8515 102.25 75.8519 107.075 62.5 106.592Z" fill="#404040"/>
</svg>
