<svg width="32" height="32" viewBox="0 0 32 32" fill="none" xmlns="http://www.w3.org/2000/svg">
<circle cx="16" cy="16" r="16" fill="#EBEBEB"/>
<path d="M16.7576 16L22.7002 10.0574C22.9094 9.84818 22.9094 9.50897 22.7002 9.29977C22.491 9.09057 22.1518 9.09055 21.9426 9.29977L16 15.2424L10.0574 9.29977C9.84815 9.09055 9.50894 9.09055 9.29974 9.29977C9.09054 9.50899 9.09052 9.84821 9.29974 10.0574L15.2423 16L9.29974 21.9426C9.09052 22.1518 9.09052 22.4911 9.29974 22.7003C9.40434 22.8049 9.54145 22.8571 9.67857 22.8571C9.81568 22.8571 9.95277 22.8049 10.0574 22.7003L16 16.7577L21.9425 22.7003C22.0471 22.8049 22.1842 22.8571 22.3214 22.8571C22.4585 22.8571 22.5956 22.8049 22.7002 22.7003C22.9094 22.491 22.9094 22.1518 22.7002 21.9426L16.7576 16Z" fill="#0B5FFB"/>
<path d="M16.7576 16L22.7002 10.0574C22.9094 9.84818 22.9094 9.50897 22.7002 9.29977C22.491 9.09057 22.1518 9.09055 21.9426 9.29977L16 15.2424L10.0574 9.29977C9.84815 9.09055 9.50894 9.09055 9.29974 9.29977C9.09054 9.50899 9.09052 9.84821 9.29974 10.0574L15.2423 16L9.29974 21.9426C9.09052 22.1518 9.09052 22.4911 9.29974 22.7003C9.40434 22.8049 9.54145 22.8571 9.67857 22.8571C9.81568 22.8571 9.95277 22.8049 10.0574 22.7003L16 16.7577L21.9425 22.7003C22.0471 22.8049 22.1842 22.8571 22.3214 22.8571C22.4585 22.8571 22.5956 22.8049 22.7002 22.7003C22.9094 22.491 22.9094 22.1518 22.7002 21.9426L16.7576 16Z" fill="black"/>
</svg>
