<svg width="24" height="25" viewBox="0 0 24 25" fill="none" xmlns="http://www.w3.org/2000/svg">
<g clip-path="url(#clip0_402_5)">
<path d="M11.9582 24.509L11.2611 23.9115C10.3001 23.1068 1.90918 15.8601 1.90918 10.5593C1.90918 5.00936 6.40829 0.510254 11.9582 0.510254C17.5081 0.510254 22.0072 5.00936 22.0072 10.5593C22.0072 15.8601 13.6163 23.1069 12.6593 23.9155L11.9582 24.509ZM11.9582 2.68314C7.6104 2.68807 4.08704 6.21143 4.08212 10.5592C4.08212 13.8893 9.24455 19.2091 11.9582 21.6439C14.6719 19.2081 19.8343 13.8853 19.8343 10.5592C19.8294 6.21143 16.306 2.68811 11.9582 2.68314Z" fill="#2F2F2F"/>
<path d="M11.958 14.5426C9.75802 14.5426 7.97461 12.7592 7.97461 10.5593C7.97461 8.35933 9.75802 6.57593 11.958 6.57593C14.1579 6.57593 15.9413 8.35933 15.9413 10.5593C15.9413 12.7592 14.1579 14.5426 11.958 14.5426ZM11.958 8.56755C10.858 8.56755 9.96628 9.45926 9.96628 10.5592C9.96628 11.6592 10.858 12.5509 11.958 12.5509C13.0579 12.5509 13.9496 11.6592 13.9496 10.5592C13.9496 9.45926 13.058 8.56755 11.958 8.56755Z" fill="#2F2F2F"/>
</g>
<defs>
<clipPath id="clip0_402_5">
<rect width="24" height="24" fill="white" transform="translate(0 0.500977)"/>
</clipPath>
</defs>
</svg>
