<svg width="22" height="23" viewBox="0 0 22 23" fill="none" xmlns="http://www.w3.org/2000/svg">
<path d="M7.30292 7.2655L10.1174 1.3795C10.1994 1.20915 10.3254 1.06588 10.4813 0.965742C10.6373 0.865604 10.817 0.812561 11.0003 0.812561C11.1837 0.812561 11.3634 0.865604 11.5194 0.965742C11.6753 1.06588 11.8013 1.20915 11.8833 1.3795L14.6978 7.2655L20.9898 8.215C21.1712 8.24113 21.342 8.31972 21.4825 8.44181C21.6231 8.56389 21.7277 8.72455 21.7845 8.90544C21.8414 9.08633 21.8481 9.28016 21.8039 9.46482C21.7597 9.64947 21.6664 9.81751 21.5347 9.94975L16.9825 14.5285L18.0572 20.9972C18.1948 21.8275 17.3498 22.4597 16.6272 22.0682L11.0003 19.0127L5.37242 22.0682C4.65092 22.4609 3.80592 21.8275 3.94351 20.9961L5.01817 14.5274L0.466006 9.94862C0.334908 9.81629 0.242187 9.64843 0.198384 9.4641C0.15458 9.27977 0.161451 9.08638 0.218214 8.90591C0.274978 8.72544 0.379357 8.56512 0.519489 8.44318C0.65962 8.32125 0.829882 8.24258 1.01092 8.21612L7.30292 7.2655Z" fill="#F7D3AB"/>
</svg>
