<svg width="95" height="28" viewBox="0 0 95 28" fill="none" xmlns="http://www.w3.org/2000/svg">
<g clip-path="url(#clip0_6_133)">
<g clip-path="url(#clip1_6_133)">
<g clip-path="url(#clip2_6_133)">
<path d="M91 0H3.5C1.54 0 0 1.54 0 3.5V24.5C0 26.46 1.54 28 3.5 28H91C92.96 28 94.5 26.46 94.5 24.5V3.5C94.5 1.54 92.96 0 91 0Z" fill="#324A5E"/>
<path d="M47.6689 15.2584C47.1089 15.2584 46.4789 15.4684 45.9889 15.7484C45.4989 16.0984 45.1489 16.5184 44.8689 17.0784C44.6589 17.6384 44.5889 18.1984 44.7289 18.8284C44.8689 19.3884 45.1489 19.9484 45.5689 20.3684C45.9889 20.7884 46.5489 21.0684 47.1089 21.2084C47.6689 21.3484 48.2989 21.2784 48.8589 21.0684C49.4189 20.8584 49.8389 20.4384 50.1889 19.9484C50.5389 19.4584 50.6789 18.8984 50.6789 18.2684C50.6789 17.8484 50.6089 17.4984 50.4689 17.1484C50.3289 16.7984 50.1189 16.4484 49.8389 16.1684C49.5589 15.8884 49.2089 15.6784 48.8589 15.5384C48.5089 15.2584 48.0889 15.1884 47.6689 15.2584ZM47.6689 20.0184C47.3189 20.0184 46.9689 19.9484 46.6189 19.8084C46.3389 19.5984 46.0589 19.3884 45.9189 19.0384C45.7789 18.6884 45.7089 18.3384 45.7789 17.9884C45.8489 17.6384 45.9889 17.2884 46.2689 17.0084C46.5489 16.7284 46.8289 16.5884 47.1789 16.4484C47.5289 16.3784 47.8789 16.3784 48.2289 16.5184C48.5789 16.6584 48.8589 16.8684 49.0689 17.1484C49.2789 17.4284 49.3489 17.7784 49.4189 18.1984C49.4189 18.4084 49.4189 18.6884 49.3489 18.8984C49.2789 19.1084 49.1389 19.3184 48.9989 19.4584C48.8589 19.5984 48.6489 19.7384 48.4389 19.8784C48.1589 19.9484 47.9489 20.0184 47.6689 20.0184ZM41.1589 15.2584C40.5989 15.2584 39.9689 15.4684 39.4789 15.7484C38.9889 16.0984 38.6389 16.5184 38.3589 17.0784C38.1489 17.6384 38.0789 18.1984 38.2189 18.8284C38.3589 19.3884 38.6389 19.9484 39.0589 20.3684C39.4789 20.7884 40.0389 21.0684 40.5989 21.2084C41.1589 21.3484 41.7889 21.2784 42.3489 21.0684C42.9089 20.8584 43.3289 20.4384 43.6789 19.9484C44.0289 19.4584 44.1689 18.8984 44.1689 18.2684C44.1689 17.8484 44.0989 17.4984 43.9589 17.1484C43.8189 16.7984 43.6089 16.4484 43.3289 16.1684C43.0489 15.8884 42.6989 15.6784 42.3489 15.5384C41.9289 15.2584 41.5789 15.1884 41.1589 15.2584ZM41.1589 20.0184C40.8089 20.0184 40.4589 19.9484 40.1089 19.8084C39.8289 19.5984 39.5489 19.3884 39.4089 19.0384C39.2689 18.6884 39.1989 18.3384 39.2689 17.9884C39.3389 17.6384 39.4789 17.2884 39.7589 17.0084C40.0389 16.7284 40.3189 16.5884 40.6689 16.4484C41.0189 16.3784 41.3689 16.3784 41.7189 16.5184C42.0689 16.6584 42.3489 16.8684 42.5589 17.1484C42.7689 17.4284 42.9089 17.7784 42.9089 18.1984C42.9089 18.4084 42.9089 18.6884 42.8389 18.8984C42.7689 19.1084 42.6289 19.3184 42.4889 19.4584C42.3489 19.5984 42.1389 19.7384 41.9289 19.8784C41.6489 19.9484 41.3689 20.0184 41.1589 20.0184ZM33.3889 16.1684V17.4284H36.3989C36.3289 17.9884 36.1189 18.5484 35.6989 19.0384C35.4189 19.3184 34.9989 19.5984 34.6489 19.7384C34.2289 19.8784 33.8089 19.9484 33.3889 19.9484C32.4789 19.9484 31.6389 19.5984 31.0089 18.9684C30.3789 18.3384 30.0289 17.4984 30.0289 16.5884C30.0289 15.6784 30.3789 14.8384 31.0089 14.2084C31.6389 13.5784 32.4789 13.2284 33.3889 13.2284C34.2289 13.2284 35.0689 13.5084 35.6989 14.1384L36.6089 13.2284C36.1889 12.8084 35.6989 12.4584 35.1389 12.2484C34.5789 12.0384 34.0189 11.8984 33.3889 11.8984C32.7589 11.8984 32.1289 11.9684 31.5689 12.1784C31.0089 12.3884 30.4489 12.7384 30.0289 13.1584C29.6089 13.5784 29.1889 14.1384 28.9789 14.6984C28.7689 15.2584 28.6289 15.8884 28.6289 16.5184C28.6289 17.1484 28.7689 17.7784 28.9789 18.3384C29.1889 18.8984 29.6089 19.4584 30.0289 19.8784C30.4489 20.2984 31.0089 20.6484 31.5689 20.8584C32.1289 21.0684 32.7589 21.2084 33.3889 21.1384C34.0189 21.1384 34.5789 21.0684 35.1389 20.8584C35.6989 20.6484 36.1889 20.2984 36.6089 19.8784C37.3089 19.0384 37.7289 17.9884 37.7289 16.9384C37.7289 16.6584 37.7289 16.3784 37.6589 16.1684H33.3889ZM65.1689 17.1484C64.9589 16.5884 64.6789 16.1684 64.1889 15.8184C63.6989 15.4684 63.2089 15.2584 62.6489 15.2584C62.2989 15.2584 61.8789 15.3284 61.5289 15.4684C61.1789 15.6084 60.8289 15.8184 60.6189 16.0984C60.3389 16.3784 60.1289 16.7284 60.0589 17.0784C59.9189 17.4284 59.8489 17.8484 59.9189 18.1984C59.9189 18.6184 59.9889 18.9684 60.1289 19.3184C60.2689 19.6684 60.4789 20.0184 60.7589 20.2984C61.0389 20.5784 61.3889 20.7884 61.7389 20.9284C62.0889 21.0684 62.5089 21.1384 62.8589 21.1384C63.3489 21.1384 63.8389 20.9984 64.2589 20.7884C64.6789 20.5784 65.0289 20.2284 65.3089 19.8084L64.3289 19.1084C64.1889 19.3884 63.9789 19.5984 63.6989 19.7384C63.4189 19.8784 63.1389 19.9484 62.8589 19.9484C62.5789 19.9484 62.2289 19.8784 62.0189 19.7384C61.7389 19.5984 61.5289 19.3184 61.4589 19.0384L65.4489 17.4284L65.1689 17.1484ZM61.1089 18.1284C61.1089 17.9184 61.1089 17.7084 61.1789 17.4984C61.2489 17.2884 61.3889 17.0784 61.5289 16.9384C61.6689 16.7984 61.8789 16.6584 62.0189 16.5184C62.2289 16.4484 62.4389 16.3784 62.6489 16.3784C62.8589 16.3784 63.0689 16.4484 63.2789 16.5184C63.4889 16.5884 63.6289 16.7984 63.7689 17.0084L61.1089 18.1284ZM57.8189 20.9984H59.1489V12.2484H57.8189V20.9984ZM55.7189 15.8884C55.4389 15.6784 55.2289 15.4684 54.9489 15.3984C54.6689 15.2584 54.3889 15.1884 54.1089 15.1884C53.3389 15.2584 52.6389 15.5384 52.0789 16.0984C51.5189 16.6584 51.2389 17.3584 51.2389 18.1284C51.2389 18.8984 51.5189 19.5984 52.0789 20.1584C52.6389 20.7184 53.3389 21.0684 54.1089 21.0684C54.3889 21.0684 54.6689 20.9984 54.9489 20.8584C55.2289 20.7184 55.4389 20.5784 55.6489 20.3684H55.7189V20.7884C55.7189 21.9084 55.0889 22.5384 54.1089 22.5384C53.7589 22.5384 53.4789 22.3984 53.1989 22.2584C52.9189 22.0484 52.7089 21.8384 52.6389 21.4884L51.5189 21.9784C51.7289 22.4684 52.0789 22.9584 52.5689 23.2384C53.0589 23.5184 53.6189 23.7284 54.1789 23.7284C55.7189 23.7284 56.9789 22.8184 56.9789 20.6484V15.3984H55.7889L55.7189 15.8884ZM54.1789 20.0184C53.7589 19.9484 53.3389 19.7384 52.9889 19.4584C52.7089 19.1084 52.4989 18.6884 52.4989 18.2684C52.4989 17.8484 52.6389 17.3584 52.9889 17.0784C53.2689 16.7284 53.6889 16.5184 54.1789 16.5184C54.3889 16.5184 54.5989 16.5884 54.8089 16.6584C55.0189 16.7284 55.1589 16.8684 55.3689 17.0784C55.5089 17.2184 55.6489 17.4284 55.7189 17.6384C55.7889 17.8484 55.7889 18.0584 55.7889 18.2684C55.7889 18.4784 55.7889 18.6884 55.7189 18.8984C55.6489 19.1084 55.5089 19.3184 55.3689 19.4584C55.2289 19.5984 55.0189 19.7384 54.8089 19.8784C54.6689 19.9484 54.3889 20.0184 54.1789 20.0184ZM71.2589 12.2484H68.1089V20.9984H69.4389V17.7084H71.2589C71.6089 17.7084 72.0289 17.7084 72.3789 17.5684C72.7289 17.4284 73.0789 17.2184 73.3589 17.0084C73.6389 16.7984 73.8489 16.4484 73.9889 16.0984C74.1289 15.7484 74.1989 15.3984 74.1989 14.9784C74.1989 14.5584 74.1289 14.2084 73.9889 13.8584C73.8489 13.5084 73.6389 13.2284 73.3589 12.9484C73.0789 12.6684 72.7289 12.5284 72.3789 12.3884C72.0289 12.2484 71.6789 12.2484 71.2589 12.2484ZM71.2589 16.4484H69.4389V13.4384H71.2589C71.6789 13.4384 72.0289 13.5784 72.3089 13.8584C72.5889 14.1384 72.7289 14.4884 72.7289 14.9084C72.7289 15.3284 72.5889 15.6784 72.3089 15.9584C72.0989 16.3084 71.6789 16.4484 71.2589 16.4484ZM79.3089 15.1884C78.8189 15.1884 78.3289 15.2584 77.9789 15.5384C77.5589 15.7484 77.2089 16.0984 76.9989 16.5884L78.1889 17.0784C78.3289 16.8684 78.4689 16.7284 78.6789 16.5884C78.8889 16.4484 79.0989 16.4484 79.3789 16.4484C79.5189 16.4484 79.7289 16.4484 79.8689 16.5184C80.0089 16.5884 80.1489 16.6584 80.2889 16.7284C80.4289 16.7984 80.4989 16.9384 80.6389 17.0784C80.7089 17.2184 80.7789 17.3584 80.7789 17.5684V17.6384C80.3589 17.4284 79.8689 17.2884 79.3789 17.2884C78.1189 17.2884 76.8589 17.9884 76.8589 19.2484C76.8589 19.5284 76.9289 19.8084 77.0689 20.0184C77.2089 20.2284 77.3489 20.5084 77.5589 20.6484C77.7689 20.8584 77.9789 20.9984 78.2589 21.0684C78.5389 21.1384 78.8189 21.2084 79.0289 21.1384C79.3789 21.1384 79.6589 21.0684 80.0089 20.9284C80.2889 20.7884 80.5689 20.5784 80.7089 20.2984H80.7789V20.9984H82.0389V17.6384C82.0389 16.0984 80.8489 15.1884 79.3089 15.1884ZM79.1689 20.0184C78.7489 20.0184 78.1189 19.8084 78.1189 19.2484C78.1189 18.5484 78.8889 18.3384 79.5189 18.3384C79.9389 18.3384 80.3589 18.4084 80.7089 18.6184C80.6389 18.9684 80.4989 19.3184 80.2189 19.5984C79.9389 19.8784 79.5889 20.0184 79.1689 20.0184ZM86.5889 15.3984L85.1189 19.1784H85.0489L83.5089 15.3984H82.1089L84.4189 20.7184L83.0889 23.6584H84.4189L87.9889 15.3984H86.5889ZM74.8289 20.9984H76.1589V12.2484H74.8289V20.9984Z" fill="white"/>
<path d="M7.27868 5.25C7.06868 5.53 6.92868 5.88 6.99868 6.23V21.7C6.99868 22.05 7.06868 22.4 7.34868 22.68L7.41868 22.75L16.0987 14.07V13.86L7.27868 5.25Z" fill="url(#paint0_linear_6_133)"/>
<path d="M18.9013 17.0125L16.0312 14.1425V13.9325L18.9013 11.0625L18.9713 11.1325L22.4013 13.0925C23.3812 13.6525 23.3812 14.5625 22.4013 15.1225L18.9713 17.0825L18.9013 17.0125Z" fill="url(#paint1_linear_6_133)"/>
<path d="M18.9713 16.94L16.0312 14L7.28125 22.75C7.49125 22.96 7.70125 23.03 7.98125 23.03C8.26125 23.03 8.54125 22.96 8.75125 22.82L18.9713 16.94Z" fill="url(#paint2_linear_6_133)"/>
<path d="M18.9713 11.0621L8.75125 5.25206C8.54125 5.11206 8.26125 4.97206 7.98125 5.04206C7.70125 5.04206 7.49125 5.18206 7.28125 5.32206L16.0312 14.0021L18.9713 11.0621Z" fill="url(#paint3_linear_6_133)"/>
<path opacity="0.2" d="M18.9012 16.8672L8.75125 22.6772C8.54125 22.8172 8.33125 22.8872 8.05125 22.8872C7.77125 22.8872 7.56125 22.8172 7.35125 22.6772L7.28125 22.7472L7.35125 22.8172C7.56125 22.9572 7.77125 23.0272 8.05125 23.0272C8.33125 23.0272 8.54125 22.9572 8.75125 22.8172L18.9713 17.0072L18.9012 16.8672Z" fill="#324A5E"/>
<path opacity="0.12" d="M7.27969 22.6097C7.06969 22.3297 6.92969 21.9797 6.92969 21.6297V21.6997C6.92969 22.0497 6.99969 22.3997 7.27969 22.6797V22.6097ZM22.3997 14.9097L18.8997 16.8697L18.9697 16.9397L22.3997 14.9797C22.6097 14.9097 22.7497 14.7697 22.8897 14.5597C23.0297 14.3497 23.0997 14.2097 23.0997 13.9297C23.0297 14.1397 22.9597 14.2797 22.8897 14.4897C22.7497 14.6997 22.6097 14.8397 22.3997 14.9097Z" fill="#324A5E"/>
<path opacity="0.25" d="M8.75 5.31718L22.4 13.0872C22.61 13.1572 22.75 13.2972 22.89 13.4372C23.03 13.5772 23.1 13.7872 23.1 13.9972C23.1 13.7872 23.03 13.5772 22.89 13.3672C22.75 13.1572 22.61 13.0172 22.4 12.9472L8.75 5.31718C7.77 4.68718 7 5.10718 7 6.22718V6.36718C7 5.24718 7.77 4.75718 8.75 5.31718Z" fill="white"/>
<path d="M32.9683 9.80312C32.9683 9.87313 32.9683 9.87313 32.8983 9.87313H32.8283C32.8283 9.87313 32.7583 9.87313 32.6883 9.87313C32.6183 9.87313 32.6183 9.87313 32.5483 9.87313H32.4783C32.4783 9.87313 32.4783 9.87313 32.4083 9.87313C32.4083 9.87313 32.4083 9.87313 32.4083 9.80312V8.75312H29.0483V9.80312C29.0483 9.80312 29.0483 9.80313 29.0483 9.87313C29.0483 9.87313 29.0483 9.87313 28.9783 9.87313H28.9083C28.9083 9.87313 28.8383 9.87313 28.7683 9.87313C28.6983 9.87313 28.6983 9.87313 28.6283 9.87313H28.5583C28.5583 9.87313 28.5583 9.87313 28.4883 9.87313C28.4883 9.87313 28.4883 9.87313 28.4883 9.80312V8.40312C28.4883 8.33313 28.4883 8.33313 28.4883 8.26312C28.4883 8.26312 28.5583 8.19312 28.6283 8.19312H28.9083C28.9783 8.12312 29.0483 8.05313 29.1183 7.91313C29.1883 7.84313 29.2583 7.70312 29.2583 7.63312C29.3283 7.49312 29.3283 7.35313 29.3983 7.21312C29.4683 7.07313 29.4683 6.86312 29.5383 6.58312C29.6083 6.30312 29.6083 6.02313 29.6783 5.67313C29.7483 5.32313 29.7483 4.90313 29.8183 4.48313C29.8183 4.41313 29.8883 4.34312 29.8883 4.27312C29.8883 4.20312 29.9583 4.20312 30.0283 4.20312H32.1983C32.2683 4.20312 32.3383 4.20312 32.3383 4.27312C32.4083 4.34312 32.4083 4.34313 32.4083 4.48313V8.19312H32.8283C32.8983 8.19312 32.8983 8.19313 32.8983 8.26312C32.8983 8.26312 32.8983 8.33313 32.8983 8.40312V9.80312H32.9683ZM31.7783 4.83313H30.4483C30.3783 5.25313 30.3783 5.60312 30.3083 5.95312C30.2383 6.23312 30.2383 6.51312 30.1683 6.79312C30.0983 7.07312 30.0983 7.14313 30.0983 7.35312C30.0283 7.49312 30.0283 7.63313 29.9583 7.77313C29.8883 7.91313 29.8883 7.98312 29.8183 8.05312C29.7483 8.12312 29.7483 8.19313 29.6783 8.26312H31.8483V4.83313H31.7783Z" fill="white"/>
<path d="M36.467 7.07063C36.467 7.35063 36.467 7.56063 36.397 7.77063C36.327 7.98063 36.257 8.19062 36.117 8.33062C35.977 8.47062 35.837 8.61062 35.627 8.68062C35.417 8.75062 35.207 8.82063 34.927 8.82063C34.647 8.82063 34.437 8.75062 34.297 8.68062C34.157 8.61062 33.947 8.47062 33.807 8.33062C33.667 8.19062 33.597 7.98062 33.527 7.84063C33.457 7.70062 33.457 7.42062 33.457 7.14062C33.457 6.86063 33.457 6.65062 33.527 6.44062C33.597 6.23062 33.667 6.02062 33.807 5.88062C33.947 5.74062 34.087 5.60063 34.297 5.53063C34.507 5.46063 34.717 5.39062 34.997 5.39062C35.277 5.39062 35.487 5.46063 35.627 5.53063C35.837 5.60063 35.977 5.74062 36.117 5.88062C36.257 6.02062 36.327 6.23063 36.397 6.37063C36.397 6.58063 36.467 6.79063 36.467 7.07063ZM35.837 7.14062C35.837 7.00063 35.837 6.79063 35.767 6.65063C35.767 6.51063 35.697 6.37062 35.627 6.23062C35.557 6.09062 35.487 6.02063 35.347 5.95063C35.207 5.88063 35.067 5.88062 34.857 5.88062C34.717 5.88062 34.577 5.88063 34.437 5.95063C34.297 6.02063 34.227 6.09062 34.157 6.23062C34.087 6.37062 34.017 6.44062 34.017 6.58062C33.947 6.72062 33.947 6.86063 33.947 7.07063C33.947 7.21063 33.947 7.42063 34.017 7.56063C34.017 7.70063 34.087 7.84062 34.157 7.98062C34.227 8.12062 34.297 8.19063 34.437 8.26063C34.577 8.33063 34.717 8.33062 34.927 8.33062C35.067 8.33062 35.207 8.33063 35.347 8.26063C35.487 8.19063 35.557 8.12062 35.627 7.98062C35.697 7.84062 35.767 7.77062 35.767 7.63062C35.767 7.49062 35.837 7.28062 35.837 7.14062Z" fill="white"/>
<path d="M39.478 8.19094C39.478 8.26094 39.478 8.26094 39.478 8.26094V8.33094V8.40094C39.478 8.40094 39.478 8.47094 39.408 8.47094C39.408 8.47094 39.338 8.54094 39.268 8.61094C39.198 8.68094 39.128 8.68094 39.058 8.75094C38.988 8.75094 38.848 8.82094 38.778 8.82094C38.708 8.82094 38.568 8.82094 38.498 8.82094C38.288 8.82094 38.078 8.75094 37.938 8.68094C37.798 8.61094 37.658 8.47094 37.518 8.33094C37.378 8.19094 37.308 8.05094 37.238 7.84094C37.168 7.63094 37.168 7.42094 37.168 7.14094C37.168 6.86094 37.238 6.58094 37.308 6.37094C37.378 6.16094 37.518 5.95094 37.588 5.81094C37.728 5.67094 37.868 5.60094 38.008 5.53094C38.148 5.46094 38.358 5.46094 38.568 5.46094C38.638 5.46094 38.778 5.46094 38.848 5.46094C38.918 5.46094 39.058 5.53094 39.128 5.53094C39.128 5.53094 39.198 5.60094 39.268 5.60094C39.338 5.67094 39.338 5.67094 39.408 5.67094C39.478 5.67094 39.478 5.74094 39.478 5.74094C39.478 5.74094 39.478 5.74094 39.478 5.81094V5.88094V5.95094C39.478 6.02094 39.478 6.09094 39.478 6.16094C39.478 6.23094 39.408 6.23094 39.408 6.23094C39.408 6.23094 39.338 6.23094 39.268 6.16094C39.198 6.09094 39.198 6.09094 39.128 6.02094C39.058 5.95094 38.988 5.95094 38.848 5.88094C38.778 5.81094 38.638 5.81094 38.498 5.81094C38.218 5.81094 38.008 5.88094 37.868 6.09094C37.728 6.30094 37.658 6.58094 37.658 7.00094C37.658 7.21094 37.658 7.35094 37.728 7.49094C37.798 7.63094 37.798 7.77094 37.868 7.84094C37.938 7.91094 38.008 7.98094 38.148 8.05094C38.288 8.12094 38.358 8.12094 38.498 8.12094C38.638 8.12094 38.708 8.12094 38.848 8.05094C38.918 7.98094 39.058 7.98094 39.128 7.91094C39.198 7.84094 39.268 7.84094 39.338 7.77094C39.408 7.70094 39.408 7.70094 39.478 7.70094C39.478 7.70094 39.478 7.70094 39.548 7.70094C39.548 7.70094 39.548 7.70094 39.548 7.77094V7.84094C39.478 8.12094 39.478 8.12094 39.478 8.19094Z" fill="white"/>
<path d="M42.4178 5.74094C42.4178 5.81094 42.4178 5.81094 42.4178 5.88094V5.95094C42.4178 5.95094 42.4178 6.02094 42.3478 6.02094C42.3478 6.02094 42.3478 6.02094 42.2778 6.02094H41.3678V8.68094C41.3678 8.68094 41.3678 8.68094 41.3678 8.75094C41.3678 8.75094 41.3678 8.75094 41.2978 8.75094C41.2278 8.75094 41.2278 8.75094 41.2278 8.75094C41.1578 8.75094 41.1578 8.75094 41.0878 8.75094C41.0178 8.75094 41.0178 8.75094 40.9478 8.75094C40.8778 8.75094 40.8778 8.75094 40.8778 8.75094H40.8078C40.8078 8.75094 40.8078 8.75094 40.8078 8.68094V6.02094H39.8978C39.8978 6.02094 39.8978 6.02094 39.8278 6.02094C39.8278 6.02094 39.8278 6.02094 39.7578 5.95094V5.88094C39.7578 5.88094 39.7578 5.81094 39.7578 5.74094C39.7578 5.67094 39.7578 5.67094 39.7578 5.60094V5.53094C39.7578 5.53094 39.7578 5.46094 39.8278 5.46094C39.8278 5.46094 39.8278 5.46094 39.8978 5.46094H42.2778C42.2778 5.46094 42.2778 5.46094 42.3478 5.46094C42.3478 5.46094 42.3478 5.46094 42.4178 5.53094V5.60094C42.4178 5.67094 42.4178 5.67094 42.4178 5.74094Z" fill="white"/>
<path d="M44.3786 8.75094L43.9586 9.87094C43.9586 9.94094 43.8886 9.94094 43.8886 9.94094C43.8186 9.94094 43.7486 9.94094 43.6086 9.94094C43.5386 9.94094 43.4686 9.94094 43.4686 9.94094C43.3986 9.94094 43.3986 9.94094 43.3986 9.94094C43.3986 9.94094 43.3986 9.94094 43.3986 9.87094V9.80094L43.8186 8.75094C43.8186 8.75094 43.7486 8.75094 43.7486 8.68094C43.7486 8.68094 43.7486 8.61094 43.6786 8.61094L42.5586 5.67094C42.5586 5.60094 42.5586 5.60094 42.5586 5.53094V5.46094H42.6286C42.6986 5.46094 42.6986 5.46094 42.7686 5.46094C42.8386 5.46094 42.9086 5.46094 42.9086 5.46094C42.9786 5.46094 42.9786 5.46094 42.9786 5.46094C42.9786 5.46094 43.0486 5.46094 43.0486 5.53094V5.60094L43.9586 8.05094L44.8686 5.60094C44.8686 5.53094 44.8686 5.53094 44.9386 5.53094H45.0086C45.0786 5.53094 45.0786 5.53094 45.1486 5.53094C45.2186 5.53094 45.2886 5.53094 45.2886 5.53094C45.3586 5.53094 45.3586 5.53094 45.3586 5.53094V5.60094V5.67094L44.3786 8.75094Z" fill="white"/>
<path d="M48.7189 8.68094C48.7189 8.75094 48.6489 8.75094 48.6489 8.75094H48.5789C48.5089 8.75094 48.5089 8.75094 48.4389 8.75094C48.3689 8.75094 48.3689 8.75094 48.2989 8.75094C48.2289 8.75094 48.2289 8.75094 48.2289 8.75094H48.1589C48.1589 8.75094 48.1589 8.75094 48.1589 8.68094V5.95094H46.6889V8.61094C46.6889 8.61094 46.6889 8.61094 46.6889 8.68094C46.6889 8.68094 46.6889 8.68094 46.6189 8.68094H46.5489C46.4789 8.68094 46.4789 8.68094 46.4089 8.68094C46.3389 8.68094 46.3389 8.68094 46.2689 8.68094C46.1989 8.68094 46.1989 8.68094 46.1989 8.68094H46.1289C46.1289 8.68094 46.1289 8.68094 46.1289 8.61094V5.67094C46.1289 5.60094 46.1289 5.53094 46.1989 5.53094C46.1989 5.53094 46.2689 5.46094 46.3389 5.46094H48.5789C48.6489 5.46094 48.6489 5.46094 48.7189 5.53094C48.7189 5.53094 48.7889 5.60094 48.7889 5.67094V8.68094H48.7189Z" fill="white"/>
<path d="M52.4295 8.68125C52.4295 8.75125 52.3595 8.75125 52.3595 8.75125H52.2895C52.2195 8.75125 52.2195 8.75125 52.1495 8.75125C52.0795 8.75125 52.0795 8.75125 52.0095 8.75125C51.9395 8.75125 51.9395 8.75125 51.9395 8.75125H51.8695C51.8695 8.75125 51.8695 8.75125 51.8695 8.68125V7.35125H50.3295V8.68125C50.3295 8.68125 50.3295 8.68125 50.3295 8.75125C50.3295 8.75125 50.3295 8.75125 50.2595 8.75125C50.1895 8.75125 50.1895 8.75125 50.1895 8.75125C50.1195 8.75125 50.1195 8.75125 50.0495 8.75125C49.9795 8.75125 49.9795 8.75125 49.9095 8.75125C49.8395 8.75125 49.8395 8.75125 49.8395 8.75125H49.7695C49.7695 8.75125 49.7695 8.75125 49.7695 8.68125V5.60125C49.7695 5.60125 49.7695 5.60125 49.7695 5.53125C49.7695 5.53125 49.7695 5.53125 49.8395 5.53125H49.9095C49.9795 5.53125 49.9795 5.53125 50.0495 5.53125C50.1195 5.53125 50.1195 5.53125 50.1895 5.53125C50.2595 5.53125 50.2595 5.53125 50.2595 5.53125C50.2595 5.53125 50.2595 5.53125 50.3295 5.53125C50.3295 5.53125 50.3295 5.53125 50.3295 5.60125V6.86125H51.8695V5.60125C51.8695 5.60125 51.8695 5.60125 51.8695 5.53125C51.8695 5.53125 51.8695 5.53125 51.9395 5.53125H52.0095C52.0795 5.53125 52.0795 5.53125 52.1495 5.53125C52.2195 5.53125 52.2195 5.53125 52.2895 5.53125C52.3595 5.53125 52.3595 5.53125 52.3595 5.53125C52.3595 5.53125 52.3595 5.53125 52.4295 5.53125C52.4295 5.53125 52.4295 5.53125 52.4295 5.60125V8.68125Z" fill="white"/>
<path d="M56.3498 7.07063C56.3498 7.35063 56.3498 7.56063 56.2798 7.77063C56.2098 7.98063 56.1398 8.19062 55.9998 8.33062C55.8598 8.47062 55.7198 8.61062 55.5098 8.68062C55.2998 8.75062 55.0898 8.82063 54.8098 8.82063C54.5298 8.82063 54.3198 8.75062 54.1798 8.68062C54.0398 8.61062 53.8298 8.47062 53.6898 8.33062C53.5498 8.19062 53.4798 7.98062 53.4098 7.84063C53.3398 7.70062 53.3398 7.42062 53.3398 7.14062C53.3398 6.86063 53.3398 6.65062 53.4098 6.44062C53.4798 6.23062 53.5498 6.02062 53.6898 5.88062C53.8298 5.74062 53.9698 5.60063 54.1798 5.53063C54.3898 5.46063 54.5998 5.39062 54.8798 5.39062C55.1598 5.39062 55.3698 5.46063 55.5098 5.53063C55.7198 5.60063 55.8598 5.74062 55.9998 5.88062C56.1398 6.02062 56.2098 6.23063 56.2798 6.37063C56.3498 6.58063 56.3498 6.79063 56.3498 7.07063ZM55.7898 7.14062C55.7898 7.00063 55.7898 6.79063 55.7198 6.65063C55.7198 6.51063 55.6498 6.37062 55.5798 6.23062C55.5098 6.09062 55.4398 6.09063 55.2998 6.02063C55.1598 5.95063 55.0198 5.95063 54.8098 5.95063C54.6698 5.95063 54.5298 5.95063 54.3898 6.02063C54.2498 6.09063 54.1798 6.16063 54.1098 6.30063C54.0398 6.44063 53.9698 6.51063 53.9698 6.65063C53.8998 6.79063 53.8998 6.93063 53.8998 7.07063C53.8998 7.21063 53.8998 7.42063 53.9698 7.56063C53.9698 7.70063 54.0398 7.84062 54.1098 7.98062C54.1798 8.12062 54.2498 8.19063 54.3898 8.26063C54.5298 8.33063 54.6698 8.33062 54.8798 8.33062C55.0198 8.33062 55.1598 8.33063 55.2998 8.26063C55.4398 8.19063 55.5098 8.12062 55.5798 7.98062C55.6498 7.84062 55.7198 7.77062 55.7198 7.63062C55.7198 7.49062 55.7898 7.28062 55.7898 7.14062Z" fill="white"/>
<path d="M61.3169 7.77125C61.3169 7.91125 61.3169 8.05125 61.2469 8.19125C61.1769 8.33125 61.1069 8.40125 60.9669 8.54125C60.8269 8.61125 60.6869 8.68125 60.5469 8.75125C60.3369 8.82125 60.1269 8.82125 59.9169 8.82125C59.8469 8.82125 59.7769 8.82125 59.7069 8.82125C59.6369 8.82125 59.5669 8.82125 59.4969 8.82125C59.4269 8.82125 59.3569 8.82125 59.2869 8.82125C59.2169 8.82125 59.1469 8.82125 59.0769 8.82125C59.0069 8.82125 58.9369 8.75125 58.8669 8.75125C58.7969 8.61125 58.7969 8.54125 58.7969 8.40125V5.81125C58.7969 5.67125 58.7969 5.60125 58.8669 5.60125C58.9369 5.53125 59.0069 5.53125 59.0769 5.53125C59.1469 5.53125 59.2169 5.53125 59.2869 5.53125C59.3569 5.53125 59.4269 5.53125 59.4969 5.53125C59.5669 5.53125 59.6369 5.53125 59.7069 5.53125C59.7769 5.53125 59.8469 5.53125 59.9169 5.53125C60.1269 5.53125 60.3369 5.53125 60.4769 5.60125C60.6169 5.67125 60.7569 5.67125 60.8969 5.74125C61.0369 5.81125 61.1069 5.88125 61.1069 6.02125C61.1069 6.16125 61.1769 6.23125 61.1769 6.37125C61.1769 6.51125 61.1069 6.72125 61.0369 6.79125C60.9669 6.86125 60.8269 7.00125 60.6169 7.07125C60.8269 7.14125 61.0369 7.21125 61.1069 7.35125C61.2469 7.42125 61.3169 7.56125 61.3169 7.77125ZM60.6169 6.37125C60.6169 6.30125 60.6169 6.23125 60.5469 6.16125C60.4769 6.09125 60.4769 6.02125 60.4069 6.02125C60.3369 5.95125 60.2669 5.95125 60.1969 5.95125C60.1269 5.95125 59.9869 5.95125 59.8469 5.95125C59.7069 5.95125 59.6369 5.95125 59.5669 5.95125C59.4969 5.95125 59.4269 5.95125 59.3569 5.95125V6.93125H59.9169C60.1269 6.93125 60.3369 6.86125 60.4769 6.79125C60.5469 6.65125 60.6169 6.51125 60.6169 6.37125ZM60.7569 7.77125C60.7569 7.70125 60.7569 7.63125 60.6869 7.56125C60.6869 7.49125 60.6169 7.42125 60.5469 7.42125C60.4769 7.35125 60.4069 7.35125 60.2669 7.35125C60.1269 7.35125 60.0569 7.35125 59.9169 7.35125H59.3569V8.47125C59.4269 8.47125 59.4269 8.47125 59.4969 8.47125C59.5669 8.47125 59.5669 8.47125 59.6369 8.47125C59.7069 8.47125 59.7069 8.47125 59.7769 8.47125C59.8469 8.47125 59.8469 8.47125 59.9169 8.47125C60.0569 8.47125 60.1969 8.47125 60.2669 8.40125C60.3369 8.40125 60.4769 8.33125 60.5469 8.26125C60.6169 8.19125 60.6869 8.12125 60.6869 8.05125C60.6869 7.98125 60.7569 7.84125 60.7569 7.77125Z" fill="white"/>
</g>
</g>
</g>
<defs>
<linearGradient id="paint0_linear_6_133" x1="15.2552" y1="6.09343" x2="3.50925" y2="17.8394" gradientUnits="userSpaceOnUse">
<stop stop-color="#00A0FF"/>
<stop offset="0.01" stop-color="#00A1FF"/>
<stop offset="0.26" stop-color="#00BEFF"/>
<stop offset="0.51" stop-color="#00D2FF"/>
<stop offset="0.76" stop-color="#00DFFF"/>
<stop offset="1" stop-color="#00E3FF"/>
</linearGradient>
<linearGradient id="paint1_linear_6_133" x1="23.6822" y1="14.0725" x2="6.74918" y2="14.0725" gradientUnits="userSpaceOnUse">
<stop stop-color="#FFE000"/>
<stop offset="0.41" stop-color="#FFBD00"/>
<stop offset="0.78" stop-color="#FFA500"/>
<stop offset="1" stop-color="#FF9C00"/>
</linearGradient>
<linearGradient id="paint2_linear_6_133" x1="17.3717" y1="15.5995" x2="1.43968" y2="31.5245" gradientUnits="userSpaceOnUse">
<stop stop-color="#FF3A44"/>
<stop offset="1" stop-color="#C31162"/>
</linearGradient>
<linearGradient id="paint3_linear_6_133" x1="5.08668" y1="0.152626" x2="12.1987" y2="7.26449" gradientUnits="userSpaceOnUse">
<stop stop-color="#32A071"/>
<stop offset="0.07" stop-color="#2DA771"/>
<stop offset="0.48" stop-color="#15CF74"/>
<stop offset="0.8" stop-color="#06E775"/>
<stop offset="1" stop-color="#00F076"/>
</linearGradient>
<clipPath id="clip0_6_133">
<rect width="94.5" height="28" fill="white"/>
</clipPath>
<clipPath id="clip1_6_133">
<rect width="94.5" height="28" fill="white"/>
</clipPath>
<clipPath id="clip2_6_133">
<rect width="94.5" height="28" fill="white"/>
</clipPath>
</defs>
</svg>
