<svg width="20" height="24" viewBox="0 0 20 24" fill="none" xmlns="http://www.w3.org/2000/svg">
<path fill-rule="evenodd" clip-rule="evenodd" d="M9.96397 0C15.4722 0 19.9279 4.45614 19.9279 9.96491C19.9279 13.1228 18.7 15.4035 16.4546 17.5439C14.2443 19.6491 12.1041 21.8246 9.92889 24C8.87636 22.9474 7.82383 21.8947 6.77129 20.8421L13.6829 13.9649C14.7004 12.9825 15.367 11.5789 15.367 10.0351C15.367 7.05263 12.9462 4.59649 9.92889 4.59649C6.91163 4.59649 4.56097 7.01754 4.56097 10.0351C4.56097 11.5789 5.22758 12.9825 6.24503 13.9649L8.35009 16.0702L5.19249 19.2281C4.63114 18.6667 4.03471 18.1053 3.47336 17.5439C1.22795 15.4386 0 13.1228 0 9.96491C0 4.45614 4.45572 0 9.96397 0Z" fill="#01A0E2"/>
<path fill-rule="evenodd" clip-rule="evenodd" d="M15.0863 11.8241C15.2968 11.2627 15.4021 10.6662 15.4021 10.0346C15.4021 7.05214 12.9812 4.596 9.96397 4.596C6.9818 4.596 4.52589 7.01705 4.52589 10.0346C4.52589 11.5785 5.19249 12.982 6.20994 13.9644L8.31501 16.0697L5.15741 19.2276C4.59606 18.6662 3.99962 18.1048 3.43827 17.5434C1.22795 15.4381 0 13.1223 0 9.96442C0 7.47319 0.912195 5.19249 2.42083 3.43811C4.84165 1.33284 7.36773 0.420562 10.6657 1.50828C14.6302 2.84161 16.5598 7.12232 15.4021 10.9469C15.3319 11.2978 15.2266 11.5785 15.0863 11.8241Z" fill="#09425D"/>
<path fill-rule="evenodd" clip-rule="evenodd" d="M10.1064 6.70312C11.9659 6.70312 13.4745 8.2119 13.4745 10.0715C13.4745 11.9312 11.9659 13.44 10.1064 13.44C8.24691 13.44 6.73828 11.9312 6.73828 10.0715C6.73828 8.2119 8.24691 6.70312 10.1064 6.70312Z" fill="#09425D"/>
</svg>
