<svg width="218" height="48" viewBox="0 0 218 48" fill="none" xmlns="http://www.w3.org/2000/svg">
<path d="M59.8532 27.7368H55.4775V37.4463H50.0078V10.9844H59.8532C62.9983 10.9844 65.3912 11.6681 67.1005 13.1041C68.8098 14.4716 69.6302 16.4546 69.6302 19.0529C69.6302 20.8307 69.22 22.335 68.4679 23.5658C67.7158 24.7966 66.4852 25.7538 64.9126 26.4376L70.6558 37.2412V37.5147H64.7759L59.8532 27.7368ZM55.4775 23.3606H59.8532C61.2206 23.3606 62.3145 23.0188 63.0666 22.335C63.8187 21.6512 64.2289 20.6939 64.2289 19.4631C64.2289 18.2324 63.8871 17.2067 63.135 16.5229C62.4513 15.8392 61.3574 15.4289 59.8532 15.4289H55.4775V23.3606ZM82.5523 37.8566C79.6807 37.8566 77.2877 36.9677 75.5101 35.1899C73.7325 33.4121 72.7753 31.0873 72.7753 28.0787V27.6C72.7753 25.6171 73.1855 23.8393 73.9376 22.2666C74.6897 20.6939 75.7836 19.5315 77.151 18.6426C78.5868 17.8221 80.1593 17.3435 81.937 17.3435C84.6034 17.3435 86.7229 18.164 88.2954 19.8734C89.868 21.5828 90.62 23.976 90.62 27.1214V29.2411H78.1082C78.2449 30.5403 78.7919 31.5659 79.6124 32.3181C80.5012 33.0702 81.5267 33.4805 82.8258 33.4805C84.8769 33.4805 86.4494 32.7283 87.5434 31.2924L90.1415 34.1642C89.321 35.2583 88.2954 36.1472 86.928 36.7626C85.6973 37.5147 84.1932 37.8566 82.5523 37.8566ZM81.937 21.6512C80.9114 21.6512 80.0226 21.9931 79.4072 22.7453C78.7919 23.429 78.3133 24.4547 78.1766 25.7538H85.4922V25.3436C85.4922 24.1812 85.1504 23.2923 84.535 22.6085C83.9197 21.9931 83.0309 21.6512 81.937 21.6512ZM104.294 32.0446C104.294 31.4292 103.952 30.8821 103.337 30.5403C102.722 30.1984 101.696 29.8565 100.26 29.5146C95.6111 28.5573 93.2181 26.5744 93.2181 23.5658C93.2181 21.788 93.9702 20.3521 95.406 19.1896C96.8418 18.0272 98.7562 17.4118 101.081 17.4118C103.61 17.4118 105.593 18.0272 107.097 19.1896C108.602 20.3521 109.354 21.9247 109.354 23.7709H104.089C104.089 23.0188 103.816 22.4034 103.337 21.9247C102.858 21.4461 102.106 21.1726 101.081 21.1726C100.192 21.1726 99.5082 21.3777 99.0297 21.788C98.5511 22.1982 98.2776 22.6769 98.2776 23.2923C98.2776 23.8393 98.551 24.3179 99.098 24.7282C99.645 25.0701 100.602 25.412 101.901 25.6855C103.2 25.959 104.294 26.2325 105.183 26.5744C107.986 27.6 109.354 29.3778 109.354 31.8394C109.354 33.6172 108.602 35.0532 107.029 36.2156C105.457 37.3096 103.474 37.8566 101.081 37.8566C99.4399 37.8566 97.9357 37.5831 96.705 36.9677C95.406 36.3523 94.4488 35.6002 93.6967 34.5745C92.9446 33.5488 92.6028 32.4548 92.6028 31.224H97.5939C97.6622 32.1813 98.0041 32.8651 98.6194 33.4121C99.2348 33.8907 100.124 34.1642 101.218 34.1642C102.243 34.1642 102.995 33.9591 103.474 33.6172C104.021 33.1386 104.294 32.6599 104.294 32.0446ZM124.532 35.4634C123.233 37.0361 121.455 37.8566 119.131 37.8566C117.011 37.8566 115.439 37.2412 114.276 36.0104C113.182 34.7796 112.567 33.0018 112.567 30.677V17.7537H117.832V30.4719C117.832 32.5232 118.789 33.5488 120.635 33.5488C122.412 33.5488 123.643 32.9335 124.327 31.7027V17.7537H129.591V37.4463H124.669L124.532 35.4634Z" fill="#09425D"/>
<path d="M161.727 38.2005H156.463V18.5763H161.727V38.2005ZM156.121 13.448C156.121 12.6958 156.395 12.012 156.942 11.5334C157.489 11.0548 158.172 10.7812 159.129 10.7812C160.018 10.7812 160.77 11.0548 161.249 11.5334C161.796 12.012 162.069 12.6958 162.069 13.448C162.069 14.2685 161.796 14.8839 161.249 15.4309C160.702 15.9779 160.018 16.183 159.129 16.183C158.241 16.183 157.557 15.9095 157.01 15.4309C156.395 14.9523 156.121 14.2685 156.121 13.448ZM176.701 32.7987C176.701 32.1833 176.359 31.6363 175.743 31.2944C175.128 30.9525 174.103 30.6106 172.667 30.2688C168.018 29.3115 165.625 27.3285 165.625 24.3199C165.625 22.5421 166.377 21.1062 167.812 19.9438C169.248 18.7814 171.163 18.166 173.487 18.166C176.017 18.166 178 18.7814 179.504 19.9438C181.008 21.1062 181.76 22.6789 181.76 24.5251H176.496C176.496 23.7729 176.222 23.1575 175.743 22.6789C175.265 22.2002 174.513 21.9267 173.487 21.9267C172.598 21.9267 171.915 22.1319 171.436 22.5421C170.958 22.9524 170.684 23.431 170.684 24.0464C170.684 24.5934 170.958 25.0721 171.505 25.4823C172.051 25.8242 173.009 26.1661 174.308 26.4396C175.607 26.7131 176.701 26.9866 177.59 27.3285C180.393 28.3542 181.76 30.132 181.76 32.5936C181.76 34.3714 181.008 35.8073 179.436 36.9697C177.863 38.0638 175.88 38.6108 173.487 38.6108C171.846 38.6108 170.342 38.3373 169.112 37.7219C167.812 37.1065 166.855 36.3543 166.103 35.3287C165.351 34.303 165.009 33.209 165.009 31.9782H170C170.069 32.9355 170.411 33.6192 171.026 34.1663C171.641 34.6449 172.53 34.9184 173.624 34.9184C174.65 34.9184 175.402 34.7133 175.88 34.3714C176.496 33.8927 176.701 33.4141 176.701 32.7987ZM184.358 28.2174C184.358 26.2345 184.768 24.5251 185.521 23.0208C186.273 21.5165 187.367 20.2857 188.734 19.4652C190.17 18.6446 191.811 18.2344 193.657 18.2344C196.323 18.2344 198.511 19.0549 200.152 20.6959C201.861 22.337 202.75 24.5251 202.955 27.3285L203.023 28.6961C203.023 31.7047 202.203 34.1663 200.494 35.9441C198.784 37.7902 196.528 38.6791 193.725 38.6791C190.922 38.6791 188.597 37.7902 186.956 35.9441C185.247 34.0979 184.427 31.6363 184.427 28.4909L184.358 28.2174ZM189.623 28.5593C189.623 30.4055 189.965 31.8414 190.648 32.8671C191.332 33.8244 192.358 34.3714 193.657 34.3714C194.956 34.3714 195.913 33.8927 196.665 32.9355C197.417 31.9782 197.759 30.4055 197.759 28.2174C197.759 26.3713 197.417 24.9353 196.665 23.978C195.981 22.9524 194.956 22.4737 193.657 22.4737C192.358 22.4737 191.4 22.9524 190.648 23.978C189.965 24.9353 189.623 26.508 189.623 28.5593ZM217.313 23.431C216.629 23.3627 215.946 23.2943 215.399 23.2943C213.416 23.2943 212.117 23.978 211.501 25.3456V38.2005H206.237V18.5763H211.228L211.365 20.9011C212.39 19.1233 213.894 18.166 215.74 18.166C216.356 18.166 216.903 18.2344 217.381 18.3711L217.313 23.431Z" fill="#01A0E2"/>
<path fill-rule="evenodd" clip-rule="evenodd" d="M19.4485 0.859375C30.1828 0.859375 38.8658 9.54328 38.8658 20.2785C38.8658 26.4324 36.4729 30.877 32.0971 35.048C27.7898 39.1506 23.6192 43.39 19.3802 47.6294C17.3291 45.5781 15.2779 43.5267 13.2268 41.4754L26.6958 28.0735C28.6786 26.1589 29.9776 23.4239 29.9776 20.4153C29.9776 14.6032 25.2601 9.81679 19.3802 9.81679C13.5003 9.81679 8.91945 14.5348 8.91945 20.4153C8.91945 23.4239 10.2185 26.1589 12.2012 28.0735L16.3035 32.1761L10.1501 38.3301C9.05619 37.236 7.89389 36.142 6.79995 35.048C2.42423 30.9453 0.03125 26.4324 0.03125 20.2785C0.03125 9.54328 8.71434 0.859375 19.4485 0.859375Z" fill="#01A0E2"/>
<path fill-rule="evenodd" clip-rule="evenodd" d="M29.4307 23.9005C29.8409 22.8065 30.046 21.644 30.046 20.4133C30.046 14.6012 25.3284 9.8148 19.4485 9.8148C13.637 9.8148 8.85108 14.5328 8.85108 20.4133C8.85108 23.4219 10.1501 26.1569 12.1329 28.0715L16.2351 32.1741L10.0818 38.3281C8.98782 37.234 7.82552 36.14 6.73158 35.046C2.42423 30.9433 0.03125 26.4305 0.03125 20.2765C0.03125 15.4217 1.80889 10.9772 4.74883 7.55835C9.46642 3.45572 14.3891 1.67791 20.816 3.7976C28.5419 6.39594 32.3022 14.738 30.046 22.1911C29.9093 22.8748 29.7042 23.4219 29.4307 23.9005Z" fill="#09425D"/>
<path fill-rule="evenodd" clip-rule="evenodd" d="M19.7237 13.9219C23.3474 13.9219 26.2873 16.8621 26.2873 20.4861C26.2873 24.1101 23.3474 27.0503 19.7237 27.0503C16.1001 27.0503 13.1602 24.1101 13.1602 20.4861C13.1602 16.8621 16.1001 13.9219 19.7237 13.9219Z" fill="#09425D"/>
<path d="M142.652 31.431L148.737 11.3281H154.891L145.592 38.0636H139.849L130.551 11.3281H136.636L142.652 31.431Z" fill="#01A0E2"/>
</svg>
