<svg width="17" height="17" viewBox="0 0 17 17" fill="none" xmlns="http://www.w3.org/2000/svg">
<path d="M14.2975 11.2259C13.4262 10.3546 12.389 9.70959 11.2575 9.31913C12.4694 8.48441 13.2656 7.08744 13.2656 5.50781C13.2656 2.95759 11.1908 0.882812 8.64062 0.882812C6.09041 0.882812 4.01562 2.95759 4.01562 5.50781C4.01562 7.08744 4.81184 8.48441 6.02381 9.31913C4.89225 9.70959 3.85512 10.3546 2.98378 11.2259C1.47278 12.737 0.640625 14.7459 0.640625 16.8828H1.89062C1.89062 13.1608 4.91866 10.1328 8.64062 10.1328C12.3626 10.1328 15.3906 13.1608 15.3906 16.8828H16.6406C16.6406 14.7459 15.8085 12.737 14.2975 11.2259ZM8.64062 8.88281C6.77966 8.88281 5.26562 7.36881 5.26562 5.50781C5.26562 3.64681 6.77966 2.13281 8.64062 2.13281C10.5016 2.13281 12.0156 3.64681 12.0156 5.50781C12.0156 7.36881 10.5016 8.88281 8.64062 8.88281Z" fill="white"/>
</svg>
