<svg width="45" height="45" viewBox="0 0 45 45" fill="none" xmlns="http://www.w3.org/2000/svg">
<path d="M43.3994 31.9303V20.2514L43.7641 20.0573C44.5383 19.6467 45 18.9141 45 18.097C45 17.28 44.5383 16.5459 43.7641 16.1353L25.054 6.20438C24.2782 5.79294 23.3971 5.57623 22.5 5.57623C21.6029 5.57623 20.7218 5.79294 19.946 6.20438L1.23431 16.1367C0.461712 16.5474 0 17.28 0 18.097C0 18.9141 0.461712 19.6467 1.23431 20.0588L6.90721 23.0709V30.0727C6.90852 30.8729 7.13978 31.6589 7.57787 32.3518C8.01595 33.0448 8.6455 33.6205 9.40354 34.0214L17.2126 38.1347C18.8425 38.9925 20.6709 39.4228 22.4992 39.4228C24.3276 39.4228 26.1544 38.9939 27.7858 38.1347L35.5934 34.0214C36.3519 33.6209 36.9819 33.0453 37.4203 32.3523C37.8587 31.6593 38.0901 30.8731 38.0912 30.0727V23.0695L40.6291 21.7223V31.9303C40.1933 32.201 39.864 32.5922 39.6894 33.0465C39.5148 33.5008 39.5042 33.9942 39.6592 34.4544C39.8142 34.9146 40.1265 35.3173 40.5504 35.6033C40.9743 35.8894 41.4873 36.0437 42.0143 36.0437C42.5412 36.0437 43.0543 35.8894 43.4781 35.6033C43.902 35.3173 44.2143 34.9146 44.3693 34.4544C44.5243 33.9942 44.5137 33.5008 44.3391 33.0465C44.1646 32.5922 43.8352 32.201 43.3994 31.9303ZM35.3225 30.0713H35.321C35.321 30.7941 34.8977 31.4663 34.2113 31.8263L26.4038 35.9395C25.2158 36.5621 23.8702 36.8897 22.5008 36.8897C21.1313 36.8897 19.7857 36.5621 18.5978 35.9395L10.7887 31.8263C10.4516 31.6483 10.1716 31.3924 9.97687 31.0844C9.78211 30.7764 9.6794 30.427 9.67902 30.0713V24.5405L19.946 29.9911C20.7221 30.4025 21.6035 30.6192 22.5008 30.6192C23.3981 30.6192 24.2794 30.4025 25.0556 29.9911L35.3225 24.5405V30.0713ZM23.6627 27.803C23.3095 27.9902 22.9084 28.0887 22.5 28.0887C22.0916 28.0887 21.6905 27.9902 21.3373 27.803L3.055 18.097L21.3357 8.3911C21.689 8.20391 22.0901 8.10533 22.4985 8.10533C22.9068 8.10533 23.3079 8.20391 23.6612 8.3911L41.9435 18.0956L23.6627 27.803Z" fill="url(#paint0_linear_45_24453)"/>
<defs>
<linearGradient id="paint0_linear_45_24453" x1="34.2254" y1="7.24473" x2="17.4042" y2="46.9147" gradientUnits="userSpaceOnUse">
<stop offset="0.216119" stop-color="#F59C36"/>
<stop offset="0.859418" stop-color="#DB8C30"/>
</linearGradient>
</defs>
</svg>
