<svg width="45" height="45" viewBox="0 0 45 45" fill="none" xmlns="http://www.w3.org/2000/svg">
<path d="M0.116091 42.8729C0.0378309 42.9946 -0.00198458 43.1375 0.00190167 43.2825C0.00578791 43.4275 0.0531932 43.568 0.137858 43.6853C0.275716 43.8829 0.500642 44 0.732824 44C0.783614 44 0.834404 44 0.892449 43.9854L7.56042 42.4923C9.48318 43.4804 11.6381 44 13.8003 44C21.3245 44 27.4555 37.8815 27.5716 30.3138C30.8367 31.2067 34.4137 30.87 37.4466 29.3185L44.1146 30.8042C44.1653 30.8188 44.2161 30.8188 44.2742 30.8188C44.5064 30.8188 44.7313 30.7017 44.8692 30.5041C45.036 30.2626 45.0433 29.9406 44.8909 29.6917L42.17 25.3517C44.0062 22.9257 45.0005 19.9579 44.9998 16.9057C44.9998 9.23563 38.8179 3 31.214 3C23.61 3 17.5588 9.11853 17.4427 16.6789C16.2818 16.3568 15.0628 16.1739 13.8003 16.1739C6.18184 16.1812 0 22.4168 0 30.0869C0 33.1389 1.00128 36.1176 2.83697 38.5328L0.116091 42.8729ZM31.1994 4.47108C37.998 4.47108 43.5341 10.0553 43.5341 16.9131C43.5341 19.804 42.5328 22.6217 40.7044 24.8393C40.5012 25.0809 40.4795 25.4322 40.6463 25.6956L42.7142 28.9891L37.4901 27.8254C37.3232 27.7888 37.1418 27.8108 36.9895 27.8913C34.0945 29.4429 30.6045 29.7429 27.499 28.7622C27.0057 23.4854 23.5665 19.0575 18.8648 17.1692C18.8648 17.0814 18.8575 16.9936 18.8575 16.9057C18.8575 10.048 24.3936 4.46376 31.1922 4.46376L31.1994 4.47108ZM1.45114 30.0869C1.45114 23.2292 6.98722 17.6449 13.7858 17.6449C20.5844 17.6449 26.1205 23.2292 26.1205 30.0869C26.1205 36.9447 20.5844 42.5289 13.7858 42.5289C11.7687 42.5289 9.76615 42.0239 7.98851 41.0652C7.88376 41.0079 7.76661 40.9778 7.64749 40.9773C7.5967 40.9773 7.53866 40.9773 7.48787 40.992L2.27103 42.1557L4.3389 38.8622C4.50578 38.5914 4.48401 38.2474 4.28811 38.0059C2.45968 35.781 1.45839 32.9632 1.45839 30.0723L1.45114 30.0869Z" fill="url(#paint0_linear_45_23920)"/>
<path d="M13.7855 36.6739C14.3863 36.6739 14.8735 36.1823 14.8735 35.576C14.8735 34.9697 14.3863 34.4782 13.7855 34.4782C13.1846 34.4782 12.6974 34.9697 12.6974 35.576C12.6974 36.1823 13.1846 36.6739 13.7855 36.6739Z" fill="url(#paint1_linear_45_23920)"/>
<path d="M13.7858 24.2319C14.983 24.2319 15.9625 25.2199 15.9625 26.4275C15.9625 27.6352 14.983 28.6232 13.7858 28.6232C13.3867 28.6232 13.0602 28.9525 13.0602 29.3551V33.0145H14.5114V30.0138C15.1839 29.8753 15.8037 29.5472 16.2988 29.0676C16.7938 28.588 17.1438 27.9765 17.3082 27.3043C17.4725 26.632 17.4444 25.9266 17.227 25.2698C17.0097 24.613 16.6122 24.0319 16.0805 23.594C15.5489 23.156 14.905 22.8792 14.2236 22.7956C13.5422 22.7121 12.8513 22.8252 12.2311 23.122C11.6109 23.4187 11.0869 23.8868 10.7199 24.4719C10.353 25.057 10.1581 25.7352 10.158 26.4275H11.6091C11.6091 25.2199 12.5886 24.2319 13.7858 24.2319ZM25.3949 11.7899H37.004V13.2537H25.3949V11.7899ZM25.3949 16.1812H37.004V17.645H25.3949V16.1812ZM28.2972 20.5725H37.004V22.0363H28.2972V20.5725Z" fill="url(#paint2_linear_45_23920)"/>
<defs>
<linearGradient id="paint0_linear_45_23920" x1="34.2254" y1="5.02113" x2="11.1837" y2="49.8801" gradientUnits="userSpaceOnUse">
<stop offset="0.216119" stop-color="#F59C36"/>
<stop offset="0.859418" stop-color="#DB8C30"/>
</linearGradient>
<linearGradient id="paint1_linear_45_23920" x1="14.3524" y1="34.5864" x2="13.0476" y2="36.8803" gradientUnits="userSpaceOnUse">
<stop offset="0.216119" stop-color="#F59C36"/>
<stop offset="0.859418" stop-color="#DB8C30"/>
</linearGradient>
<linearGradient id="paint2_linear_45_23920" x1="30.5761" y1="12.8362" x2="19.6629" y2="37.3211" gradientUnits="userSpaceOnUse">
<stop offset="0.216119" stop-color="#F59C36"/>
<stop offset="0.859418" stop-color="#DB8C30"/>
</linearGradient>
</defs>
</svg>
