<svg width="45" height="45" viewBox="0 0 45 45" fill="none" xmlns="http://www.w3.org/2000/svg">
<path d="M6.87313 20.8346C6.09649 20.8368 5.33634 21.0588 4.68062 21.475C4.0249 21.8911 3.5004 22.4845 3.16781 23.1863C2.83522 23.8881 2.70813 24.6698 2.80125 25.4408C2.89436 26.2118 3.20387 26.9408 3.69397 27.5432L14.1418 40.3418C14.5143 40.8043 14.9918 41.1713 15.5346 41.4123C16.0774 41.6532 16.6699 41.7612 17.2629 41.7271C18.531 41.659 19.6759 40.9807 20.4058 39.8653L42.1086 4.91308C42.1121 4.90724 42.1158 4.90147 42.1196 4.89577C42.3233 4.58311 42.2572 3.96349 41.8369 3.57424C41.7215 3.46735 41.5853 3.38523 41.4369 3.33293C41.2885 3.28063 41.131 3.25927 40.974 3.27016C40.8171 3.28105 40.664 3.32395 40.5242 3.39624C40.3844 3.46852 40.261 3.56865 40.1614 3.69046C40.1536 3.70004 40.1456 3.70947 40.1373 3.71876L18.2498 28.4483C18.1665 28.5424 18.0654 28.6191 17.9522 28.6737C17.8391 28.7284 17.7162 28.7601 17.5907 28.7669C17.4653 28.7737 17.3397 28.7554 17.2213 28.7133C17.1029 28.6711 16.9941 28.6059 16.9011 28.5213L9.63709 21.911C8.88265 21.2194 7.89659 20.8354 6.87313 20.8346Z" fill="url(#paint0_linear_45_24468)"/>
<defs>
<linearGradient id="paint0_linear_45_24468" x1="32.7828" y1="5.1636" x2="10.332" y2="46.0155" gradientUnits="userSpaceOnUse">
<stop offset="0.216119" stop-color="#F59C36"/>
<stop offset="0.859418" stop-color="#DB8C30"/>
</linearGradient>
</defs>
</svg>
