<svg width="45" height="45" viewBox="0 0 45 45" fill="none" xmlns="http://www.w3.org/2000/svg">
<path d="M38.1268 9.33996L29.6521 1.3224C28.7507 0.4696 27.5708 0 26.33 0H10.1953C7.52985 0 5.36133 2.16853 5.36133 4.83398V40.166C5.36133 42.8315 7.52985 45 10.1953 45H34.8047C37.4701 45 39.6387 42.8315 39.6387 40.166V12.8515C39.6387 11.5289 39.0876 10.2489 38.1268 9.33996ZM35.5659 10.5469H29.0039C28.7616 10.5469 28.5645 10.3497 28.5645 10.1074V3.92309L35.5659 10.5469ZM34.8047 42.3633H10.1953C8.98374 42.3633 7.99805 41.3776 7.99805 40.166V4.83398C7.99805 3.62241 8.98374 2.63672 10.1953 2.63672H25.9277V10.1074C25.9277 11.8036 27.3077 13.1836 29.0039 13.1836H37.002V40.166C37.002 41.3776 36.0163 42.3633 34.8047 42.3633Z" fill="url(#paint0_linear_45_24445)"/>
<path d="M31.9043 17.5781H12.5684C11.8403 17.5781 11.25 18.1684 11.25 18.8965C11.25 19.6246 11.8403 20.2148 12.5684 20.2148H31.9043C32.6324 20.2148 33.2227 19.6246 33.2227 18.8965C33.2227 18.1684 32.6324 17.5781 31.9043 17.5781ZM31.9043 24.6094H12.5684C11.8403 24.6094 11.25 25.1996 11.25 25.9277C11.25 26.6558 11.8403 27.2461 12.5684 27.2461H31.9043C32.6324 27.2461 33.2227 26.6558 33.2227 25.9277C33.2227 25.1996 32.6324 24.6094 31.9043 24.6094ZM18.9598 31.6406H12.5684C11.8403 31.6406 11.25 32.2309 11.25 32.959C11.25 33.6871 11.8403 34.2773 12.5684 34.2773H18.9598C19.6879 34.2773 20.2781 33.6871 20.2781 32.959C20.2781 32.2309 19.6879 31.6406 18.9598 31.6406Z" fill="url(#paint1_linear_45_24445)"/>
<defs>
<linearGradient id="paint0_linear_45_24445" x1="31.4314" y1="2.21831" x2="1.6764" y2="42.4216" gradientUnits="userSpaceOnUse">
<stop offset="0.216119" stop-color="#F59C36"/>
<stop offset="0.859418" stop-color="#DB8C30"/>
</linearGradient>
<linearGradient id="paint1_linear_45_24445" x1="27.9616" y1="18.4013" x2="19.6024" y2="37.9113" gradientUnits="userSpaceOnUse">
<stop offset="0.216119" stop-color="#F59C36"/>
<stop offset="0.859418" stop-color="#DB8C30"/>
</linearGradient>
</defs>
</svg>
