<svg width="45" height="45" viewBox="0 0 45 45" fill="none" xmlns="http://www.w3.org/2000/svg">
<path d="M22.4973 1.40839C16.9064 1.41542 11.5464 3.63954 7.59299 7.59296C3.63957 11.5464 1.41545 16.9063 1.40842 22.4973C1.41264 28.0901 3.63551 33.4528 7.58924 37.4085C11.543 41.3643 16.9045 43.5898 22.4973 43.5969C28.092 43.5927 33.4563 41.3683 37.4123 37.4123C41.3684 33.4563 43.5927 28.092 43.5969 22.4973C43.5899 16.9036 41.3636 11.5412 37.4067 7.58733C33.4498 3.63346 28.0911 1.4112 22.4973 1.40839ZM22.4973 4.21989C24.8998 4.21639 27.2793 4.68683 29.4996 5.60425C31.7199 6.52168 33.7375 7.86807 35.4368 9.56634C37.136 11.2646 38.4836 13.2814 39.4023 15.5012C40.321 17.721 40.7928 20.1002 40.7907 22.5026C40.7914 24.9049 40.3187 27.2838 39.3995 29.5032C38.4804 31.7227 37.1329 33.7393 35.434 35.4377C33.7351 37.1361 31.7181 38.483 29.4983 39.4015C27.2786 40.32 24.8996 40.7921 22.4973 40.7907C20.0949 40.7928 17.7157 40.321 15.4959 39.4023C13.2761 38.4835 11.2593 37.136 9.56105 35.4367C7.86279 33.7375 6.51639 31.7199 5.59897 29.4996C4.68154 27.2792 4.21111 24.8997 4.21461 22.4973C4.21181 20.0956 4.6828 17.7169 5.6006 15.4975C6.5184 13.2781 7.86499 11.2615 9.56326 9.56323C11.2615 7.86496 13.2781 6.51837 15.4975 5.60057C17.717 4.68277 20.0956 4.21178 22.4973 4.21457V4.21989ZM22.4814 11.2566C22.1097 11.2636 21.7559 11.4173 21.497 11.6841C21.2382 11.9509 21.0953 12.3092 21.0996 12.681V13.8662C18.8302 14.2913 16.885 15.7529 16.885 18.288C16.885 20.0419 17.6822 21.4663 18.7451 22.2954C19.8081 23.1245 21.0092 23.4859 22.0615 23.8366C23.1192 24.1927 24.028 24.5276 24.5435 24.9315C25.0644 25.3301 25.3089 25.6755 25.3089 26.7279C25.3089 29.0664 19.6965 29.0664 19.6965 26.7279C19.7083 26.536 19.6807 26.3437 19.6154 26.1629C19.5501 25.9821 19.4484 25.8166 19.3167 25.6765C19.185 25.5365 19.0261 25.4249 18.8496 25.3486C18.6732 25.2723 18.483 25.233 18.2907 25.233C18.0985 25.233 17.9083 25.2723 17.7318 25.3486C17.5554 25.4249 17.3964 25.5365 17.2647 25.6765C17.133 25.8166 17.0314 25.9821 16.9661 26.1629C16.9008 26.3437 16.8732 26.536 16.885 26.7279C16.885 29.2577 18.8302 30.7246 21.0996 31.1497V32.3296C21.0878 32.5215 21.1154 32.7137 21.1807 32.8946C21.246 33.0754 21.3476 33.2409 21.4793 33.3809C21.611 33.521 21.77 33.6326 21.9464 33.7089C22.1229 33.7851 22.3131 33.8245 22.5053 33.8245C22.6976 33.8245 22.8878 33.7851 23.0642 33.7089C23.2407 33.6326 23.3996 33.521 23.5313 33.3809C23.663 33.2409 23.7647 33.0754 23.83 32.8946C23.8953 32.7137 23.9229 32.5215 23.9111 32.3296V31.1444C26.1805 30.7192 28.1257 29.2524 28.1257 26.7225C28.1257 24.9634 27.3285 23.539 26.2655 22.7152C25.2026 21.8861 24.0014 21.5141 22.9491 21.1633C21.8915 20.8125 20.9826 20.4777 20.4618 20.0791C19.9463 19.6752 19.6965 19.335 19.6965 18.2827C19.6965 15.9389 25.3089 15.9389 25.3089 18.2827C25.3089 18.6563 25.4572 19.0145 25.7214 19.2786C25.9855 19.5427 26.3437 19.6911 26.7173 19.6911C27.0908 19.6911 27.449 19.5427 27.7132 19.2786C27.9773 19.0145 28.1257 18.6563 28.1257 18.2827C28.1257 15.7529 26.1805 14.2913 23.9111 13.8608V12.6757C23.9132 12.4871 23.8775 12.3 23.806 12.1256C23.7346 11.9511 23.6288 11.7927 23.4949 11.6599C23.3611 11.527 23.202 11.4224 23.027 11.3522C22.8519 11.2821 22.6646 11.2477 22.4761 11.2513L22.4814 11.2566Z" fill="url(#paint0_linear_45_24432)"/>
<defs>
<linearGradient id="paint0_linear_45_24432" x1="33.4954" y1="3.4881" x2="8.53886" y2="47.7563" gradientUnits="userSpaceOnUse">
<stop offset="0.216119" stop-color="#F59C36"/>
<stop offset="0.859418" stop-color="#DB8C30"/>
</linearGradient>
</defs>
</svg>
