<svg width="45" height="45" viewBox="0 0 45 45" fill="none" xmlns="http://www.w3.org/2000/svg">
<path d="M28.8 7.00166H25V5.30169C25 4.75169 24.4 4.50171 23.85 4.50171H20.9001C20.2001 2.50171 18.4501 1.50171 16.4501 1.50171C14.4721 1.42735 12.673 2.64019 12.0001 4.50171H9.1001C8.5501 4.50171 8.0001 4.75169 8.0001 5.30169V7.00166H4.20002C1.94813 7.02568 0.105847 8.80212 0 11.0516V39.7015C0 41.9016 2 43.5015 4.20002 43.5015H28.8C31 43.5015 33 41.9016 33 39.7015V11.0517C32.8942 8.80212 31.0519 7.02568 28.8 7.00166ZM10 6.50171H12.75C12.9839 6.47318 13.2024 6.37034 13.3734 6.20832C13.5444 6.04631 13.6589 5.83368 13.7001 5.60172C13.9962 4.31222 15.1275 3.38658 16.4501 3.35174C17.7605 3.39146 18.8747 4.31997 19.1501 5.60172C19.1936 5.84125 19.3155 6.05955 19.4964 6.22241C19.6774 6.38528 19.9073 6.48351 20.1501 6.50171H23.0001V10.5017H10V6.50171ZM31 39.7016C31 40.8016 29.9 41.5016 28.8 41.5016H4.20002C3.10001 41.5016 2 40.8016 2 39.7016V11.0517C2.10202 9.90672 3.05063 9.02272 4.20002 9.00176H8V11.5518C8.05283 12.112 8.53804 12.5311 9.10001 12.5018H23.8499C24.1259 12.5169 24.3975 12.4275 24.6106 12.2515C24.8237 12.0755 24.9627 11.8256 24.9999 11.5518V9.00166H28.7999C29.9492 9.02272 30.8979 9.90663 30.9999 11.0516V39.7016H31Z" fill="url(#paint0_linear_45_24417)"/>
<path d="M12.65 23.8517C12.275 23.4564 11.6523 23.4341 11.25 23.8018L8.04996 26.8517L6.69997 25.4517C6.32491 25.0563 5.70227 25.0341 5.29993 25.4017C5.11348 25.5971 5.00944 25.8567 5.00944 26.1267C5.00944 26.3968 5.11348 26.6564 5.29993 26.8517L7.34989 28.9517C7.43753 29.0499 7.54563 29.1276 7.66657 29.1795C7.78751 29.2313 7.91835 29.256 8.04986 29.2518C8.31363 29.248 8.56523 29.1402 8.74983 28.9517L12.6498 25.2518C13.0365 24.8971 13.0623 24.2961 12.7075 23.9095C12.6893 23.8894 12.6701 23.8701 12.65 23.8517ZM27 26.0017H15.5C14.9477 26.0017 14.5 26.4494 14.5 27.0017C14.5 27.554 14.9477 28.0017 15.5 28.0017H27C27.5523 28.0017 28 27.554 28 27.0017C28 26.4494 27.5523 26.0017 27 26.0017ZM12.65 15.8517C12.275 15.4564 11.6523 15.4341 11.25 15.8018L8.04996 18.8517L6.69997 17.4517C6.32491 17.0564 5.70227 17.0341 5.29993 17.4017C5.11348 17.5971 5.00944 17.8567 5.00944 18.1267C5.00944 18.3968 5.11348 18.6564 5.29993 18.8517L7.34989 20.9517C7.43753 21.0499 7.54563 21.1276 7.66657 21.1795C7.78751 21.2313 7.91835 21.256 8.04986 21.2518C8.31363 21.248 8.56523 21.1402 8.74983 20.9517L12.6498 17.2518C13.0365 16.8971 13.0623 16.2961 12.7075 15.9095C12.6893 15.8894 12.6701 15.8701 12.65 15.8517ZM27 18.0017H15.5C14.9477 18.0017 14.5 18.4494 14.5 19.0017C14.5 19.554 14.9477 20.0017 15.5 20.0017H27C27.5523 20.0017 28 19.554 28 19.0017C28 18.4494 27.5523 18.0017 27 18.0017ZM12.65 31.8516C12.275 31.4563 11.6523 31.4341 11.25 31.8017L8.04996 34.8516L6.69997 33.4516C6.32491 33.0563 5.70227 33.034 5.29993 33.4016C5.11348 33.597 5.00944 33.8566 5.00944 34.1266C5.00944 34.3967 5.11348 34.6563 5.29993 34.8516L7.34989 36.9517C7.43753 37.0498 7.54563 37.1275 7.66657 37.1794C7.78751 37.2312 7.91835 37.2559 8.04986 37.2517C8.31363 37.2479 8.56523 37.1401 8.74983 36.9517L12.6498 33.2517C13.0365 32.897 13.0623 32.296 12.7075 31.9094C12.6893 31.8893 12.6701 31.87 12.65 31.8516ZM27 34.0017H15.5C14.9477 34.0017 14.5 34.4494 14.5 35.0017C14.5 35.554 14.9477 36.0017 15.5 36.0017H27C27.5523 36.0017 28 35.554 28 35.0017C28 34.4494 27.5523 34.0017 27 34.0017Z" fill="url(#paint1_linear_45_24417)"/>
<defs>
<linearGradient id="paint0_linear_45_24417" x1="25.0986" y1="3.56905" x2="-2.41282" y2="41.9091" gradientUnits="userSpaceOnUse">
<stop offset="0.216119" stop-color="#F59C36"/>
<stop offset="0.859418" stop-color="#DB8C30"/>
</linearGradient>
<linearGradient id="paint1_linear_45_24417" x1="22.4952" y1="16.6103" x2="10.0408" y2="40.0027" gradientUnits="userSpaceOnUse">
<stop offset="0.216119" stop-color="#F59C36"/>
<stop offset="0.859418" stop-color="#DB8C30"/>
</linearGradient>
</defs>
</svg>
