<svg width="45" height="45" viewBox="0 0 45 45" fill="none" xmlns="http://www.w3.org/2000/svg">
<path d="M15.5 1.83331C9.04167 1.83331 3.875 6.99998 3.875 13.4583V18.625C1.67917 18.625 0 20.3041 0 22.5V39.2916C0 41.4875 1.67917 43.1666 3.875 43.1666H27.125C29.3208 43.1666 31 41.4875 31 39.2916V22.5C31 20.3041 29.3208 18.625 27.125 18.625V13.4583C27.125 6.99998 21.9583 1.83331 15.5 1.83331ZM28.4167 22.5V39.2916C28.4167 40.0666 27.9 40.5833 27.125 40.5833H3.875C3.1 40.5833 2.58333 40.0666 2.58333 39.2916V22.5C2.58333 21.725 3.1 21.2083 3.875 21.2083H27.125C27.9 21.2083 28.4167 21.725 28.4167 22.5ZM6.45833 18.625V13.4583C6.45833 8.42081 10.4625 4.41665 15.5 4.41665C20.5375 4.41665 24.5417 8.42081 24.5417 13.4583V18.625H6.45833Z" fill="url(#paint0_linear_45_24425)"/>
<path d="M15.5 25.0833C13.3042 25.0833 11.625 26.7625 11.625 28.9583C11.625 30.6375 12.6583 32.0583 14.2083 32.575V35.4166C14.2083 36.1916 14.725 36.7083 15.5 36.7083C16.275 36.7083 16.7917 36.1916 16.7917 35.4166V32.575C18.3417 32.0583 19.375 30.6375 19.375 28.9583C19.375 26.7625 17.6958 25.0833 15.5 25.0833ZM15.5 30.25C14.725 30.25 14.2083 29.7333 14.2083 28.9583C14.2083 28.1833 14.725 27.6666 15.5 27.6666C16.275 27.6666 16.7917 28.1833 16.7917 28.9583C16.7917 29.7333 16.275 30.25 15.5 30.25Z" fill="url(#paint1_linear_45_24425)"/>
<defs>
<linearGradient id="paint0_linear_45_24425" x1="23.5775" y1="3.87087" x2="-3.87413" y2="40.3913" gradientUnits="userSpaceOnUse">
<stop offset="0.216119" stop-color="#F59C36"/>
<stop offset="0.859418" stop-color="#DB8C30"/>
</linearGradient>
<linearGradient id="paint1_linear_45_24425" x1="17.5194" y1="25.6564" x2="9.59358" y2="35.0289" gradientUnits="userSpaceOnUse">
<stop offset="0.216119" stop-color="#F59C36"/>
<stop offset="0.859418" stop-color="#DB8C30"/>
</linearGradient>
</defs>
</svg>
