<svg width="45" height="45" viewBox="0 0 45 45" fill="none" xmlns="http://www.w3.org/2000/svg">
<g clip-path="url(#clip0_45_24449)">
<path d="M43.5611 11.1777C43.1003 10.0892 42.5351 9.04788 41.8735 8.06836C41.219 7.09963 40.4674 6.18864 39.6396 5.3608C38.8119 4.53296 37.9009 3.78141 36.9322 3.1268C35.9526 2.46512 34.9113 1.89986 33.8228 1.43895C31.5654 0.484189 29.1683 0 26.6982 0C24.2281 0 21.8311 0.484189 19.5737 1.43903C18.4852 1.89995 17.4438 2.46521 16.4643 3.12688C15.4956 3.78141 14.5846 4.53305 13.7568 5.36089C12.9291 6.18873 12.1774 7.09963 11.523 8.06845C10.8614 9.04799 10.2962 10.0893 9.83531 11.1778C8.88056 13.435 8.39646 15.8317 8.39646 18.3015C8.39646 20.7713 8.88056 23.1681 9.83531 25.4254C10.2962 26.5139 10.8614 27.5552 11.523 28.5347C12.1798 29.5063 12.9278 30.4129 13.7568 31.2423C14.5862 32.0714 15.4928 32.8195 16.4643 33.4763C17.4438 34.138 18.4852 34.7032 19.5737 35.1642C21.8311 36.119 24.2281 36.6032 26.6982 36.6032C29.1683 36.6032 31.5653 36.119 33.8227 35.1642C34.9112 34.7032 35.9525 34.138 36.9321 33.4763C37.9008 32.8218 38.8118 32.0701 39.6396 31.2423C40.4673 30.4145 41.2189 29.5035 41.8734 28.5347C42.535 27.5552 43.1002 26.5139 43.5611 25.4254C44.5159 23.168 45 20.7712 45 18.3014C45 15.8317 44.5159 13.4349 43.5611 11.1777ZM26.6983 33.5196C18.3069 33.5196 11.4801 26.6927 11.4801 18.3014C11.4801 9.91028 18.3069 3.08355 26.6983 3.08355C35.0896 3.08355 41.9164 9.9102 41.9164 18.3014C41.9164 26.6926 35.0895 33.5196 26.6983 33.5196ZM9.10802 33.7116L0.45167 42.368C-0.150468 42.9702 -0.150381 43.9464 0.45167 44.5484C0.752696 44.8494 1.14724 45 1.54178 45C1.93632 45 2.33095 44.8494 2.63197 44.5484L11.2883 35.892C11.8905 35.2898 11.8905 34.3136 11.2883 33.7116C10.6863 33.1095 9.71007 33.1095 9.10802 33.7116Z" fill="url(#paint0_linear_45_24449)"/>
</g>
<defs>
<linearGradient id="paint0_linear_45_24449" x1="34.2254" y1="2.21831" x2="7.60563" y2="49.4366" gradientUnits="userSpaceOnUse">
<stop offset="0.216119" stop-color="#F59C36"/>
<stop offset="0.859418" stop-color="#DB8C30"/>
</linearGradient>
<clipPath id="clip0_45_24449">
<rect width="45" height="45" fill="white"/>
</clipPath>
</defs>
</svg>
