<svg width="45" height="45" viewBox="0 0 45 45" fill="none" xmlns="http://www.w3.org/2000/svg">
<g clip-path="url(#clip0_45_24440)">
<path d="M35.625 9.375H30V7.5C30 6.00816 29.4074 4.57742 28.3525 3.52252C27.2976 2.46763 25.8668 1.875 24.375 1.875H20.625C19.1332 1.875 17.7024 2.46763 16.6475 3.52252C15.5926 4.57742 15 6.00816 15 7.5V9.375H9.375C6.88951 9.37798 4.50667 10.3667 2.74916 12.1242C0.991654 13.8817 0.00297723 16.2645 0 18.75L0 33.75C0.00297723 36.2355 0.991654 38.6183 2.74916 40.3758C4.50667 42.1333 6.88951 43.122 9.375 43.125H35.625C38.1105 43.122 40.4933 42.1333 42.2508 40.3758C44.0083 38.6183 44.997 36.2355 45 33.75V18.75C44.997 16.2645 44.0083 13.8817 42.2508 12.1242C40.4933 10.3667 38.1105 9.37798 35.625 9.375ZM18.75 7.5C18.75 7.00272 18.9475 6.52581 19.2992 6.17417C19.6508 5.82254 20.1277 5.625 20.625 5.625H24.375C24.8723 5.625 25.3492 5.82254 25.7008 6.17417C26.0525 6.52581 26.25 7.00272 26.25 7.5V9.375H18.75V7.5ZM41.25 33.75C41.25 35.2418 40.6574 36.6726 39.6025 37.7275C38.5476 38.7824 37.1168 39.375 35.625 39.375H9.375C7.88316 39.375 6.45242 38.7824 5.39752 37.7275C4.34263 36.6726 3.75 35.2418 3.75 33.75V18.75C3.75 17.2582 4.34263 15.8274 5.39752 14.7725C6.45242 13.7176 7.88316 13.125 9.375 13.125H35.625C37.1168 13.125 38.5476 13.7176 39.6025 14.7725C40.6574 15.8274 41.25 17.2582 41.25 18.75V33.75ZM30 26.25C30 26.7473 29.8025 27.2242 29.4508 27.5758C29.0992 27.9275 28.6223 28.125 28.125 28.125H24.375V31.875C24.375 32.3723 24.1775 32.8492 23.8258 33.2008C23.4742 33.5525 22.9973 33.75 22.5 33.75C22.0027 33.75 21.5258 33.5525 21.1742 33.2008C20.8225 32.8492 20.625 32.3723 20.625 31.875V28.125H16.875C16.3777 28.125 15.9008 27.9275 15.5492 27.5758C15.1975 27.2242 15 26.7473 15 26.25C15 25.7527 15.1975 25.2758 15.5492 24.9242C15.9008 24.5725 16.3777 24.375 16.875 24.375H20.625V20.625C20.625 20.1277 20.8225 19.6508 21.1742 19.2992C21.5258 18.9475 22.0027 18.75 22.5 18.75C22.9973 18.75 23.4742 18.9475 23.8258 19.2992C24.1775 19.6508 24.375 20.1277 24.375 20.625V24.375H28.125C28.6223 24.375 29.0992 24.5725 29.4508 24.9242C29.8025 25.2758 30 25.7527 30 26.25Z" fill="url(#paint0_linear_45_24440)"/>
</g>
<defs>
<linearGradient id="paint0_linear_45_24440" x1="34.2254" y1="3.90845" x2="10.9612" y2="48.926" gradientUnits="userSpaceOnUse">
<stop offset="0.216119" stop-color="#F59C36"/>
<stop offset="0.859418" stop-color="#DB8C30"/>
</linearGradient>
<clipPath id="clip0_45_24440">
<rect width="45" height="45" fill="white"/>
</clipPath>
</defs>
</svg>
