<svg width="45" height="45" viewBox="0 0 45 45" fill="none" xmlns="http://www.w3.org/2000/svg">
<path d="M14.5 22.5C16.4119 22.5 18.2808 21.9331 19.8705 20.8709C21.4602 19.8087 22.6992 18.299 23.4308 16.5326C24.1625 14.7663 24.3539 12.8226 23.9809 10.9475C23.6079 9.07234 22.6873 7.3499 21.3354 5.99799C19.9835 4.64608 18.261 3.72542 16.3859 3.35243C14.5107 2.97944 12.5671 3.17088 10.8007 3.90252C9.03438 4.63417 7.52465 5.87317 6.46246 7.46285C5.40027 9.05252 4.83333 10.9215 4.83333 12.8334C4.83589 15.3963 5.85516 17.8536 7.66746 19.6659C9.47976 21.4782 11.937 22.4975 14.5 22.5ZM14.5 6.38891C15.7746 6.38891 17.0206 6.76687 18.0803 7.475C19.1401 8.18312 19.9661 9.18961 20.4539 10.3672C20.9417 11.5447 21.0693 12.8405 20.8206 14.0906C20.572 15.3407 19.9582 16.489 19.0569 17.3903C18.1556 18.2915 17.0073 18.9053 15.7572 19.154C14.5071 19.4026 13.2114 19.275 12.0338 18.7872C10.8562 18.2995 9.84977 17.4735 9.14164 16.4137C8.43352 15.3539 8.05556 14.1079 8.05556 12.8334C8.05556 11.1242 8.73452 9.48502 9.94309 8.27645C11.1517 7.06788 12.7908 6.38891 14.5 6.38891ZM14.5 25.7222C10.6557 25.7265 6.97002 27.2556 4.25166 29.9739C1.53331 32.6923 0.00426437 36.3779 0 40.2222C0 40.6495 0.169742 41.0593 0.471883 41.3615C0.774025 41.6636 1.18382 41.8334 1.61111 41.8334C2.0384 41.8334 2.4482 41.6636 2.75034 41.3615C3.05248 41.0593 3.22222 40.6495 3.22222 40.2222C3.22222 37.2312 4.41041 34.3626 6.52541 32.2477C8.6404 30.1327 11.5089 28.9445 14.5 28.9445C17.4911 28.9445 20.3596 30.1327 22.4746 32.2477C24.5896 34.3626 25.7778 37.2312 25.7778 40.2222C25.7778 40.6495 25.9475 41.0593 26.2497 41.3615C26.5518 41.6636 26.9616 41.8334 27.3889 41.8334C27.8162 41.8334 28.226 41.6636 28.5281 41.3615C28.8303 41.0593 29 40.6495 29 40.2222C28.9957 36.3779 27.4667 32.6923 24.7483 29.9739C22.03 27.2556 18.3443 25.7265 14.5 25.7222Z" fill="url(#paint0_linear_45_24436)"/>
<defs>
<linearGradient id="paint0_linear_45_24436" x1="22.0563" y1="5.07279" x2="-3.62419" y2="39.2371" gradientUnits="userSpaceOnUse">
<stop offset="0.216119" stop-color="#F59C36"/>
<stop offset="0.859418" stop-color="#DB8C30"/>
</linearGradient>
</defs>
</svg>
