<svg width="45" height="45" viewBox="0 0 45 45" fill="none" xmlns="http://www.w3.org/2000/svg">
<path d="M33.1376 12.4321H27.6329V8.99255C27.6329 7.43923 26.3563 6.17566 24.7871 6.17566H15.213C13.6438 6.17566 12.3672 7.43938 12.3672 8.99255V12.4321H6.86238C3.62986 12.4321 1 15.062 1 18.2945V35.0358C1 37.6762 3.14811 39.8244 5.78858 39.8244H34.2114C36.8518 39.8244 39 37.6763 39 35.0358V18.2945C38.9999 15.062 36.3701 12.4321 33.1376 12.4321ZM14.6005 8.99255C14.6005 8.65983 14.8638 8.40897 15.213 8.40897H24.787C25.1362 8.40897 25.3995 8.65983 25.3995 8.99255V12.4321H14.6005V8.99255ZM36.7665 35.0358C36.7666 36.4448 35.6204 37.5911 34.2114 37.5911H5.78858C4.37954 37.5911 3.23331 36.4448 3.23331 35.0358V24.6053C3.58964 24.829 3.97369 25.0051 4.37568 25.1293C4.39706 25.1358 4.41858 25.1419 4.44026 25.1472L15.8166 27.9275V28.8459C15.8166 30.2878 16.9897 31.4609 18.4317 31.4609H21.5683C23.0102 31.4609 24.1833 30.2878 24.1833 28.8459V27.9275L35.5597 25.1472C35.5814 25.1419 35.6029 25.136 35.6242 25.1293C36.0262 25.0051 36.4103 24.829 36.7666 24.6053V35.0358H36.7665ZM18.05 28.8459V25.6952C18.0501 25.594 18.0904 25.4969 18.1619 25.4254C18.2335 25.3538 18.3305 25.3136 18.4317 25.3134H21.5683C21.6696 25.3135 21.7666 25.3538 21.8382 25.4254C21.9097 25.4969 21.95 25.594 21.9501 25.6952V28.8459C21.9499 28.9471 21.9097 29.0441 21.8381 29.1157C21.7666 29.1872 21.6695 29.2275 21.5683 29.2276H18.4317C18.3305 29.2275 18.2335 29.1872 18.162 29.1156C18.0904 29.0441 18.0502 28.9471 18.05 28.8459ZM36.7667 20.5449C36.7667 21.6675 36.0558 22.6448 34.9941 22.9863L24.1817 25.6287C24.1463 24.2174 22.9881 23.08 21.5683 23.08H18.4317C17.0121 23.08 15.8538 24.2175 15.8183 25.6287L5.00588 22.9864C3.94433 22.6448 3.23331 21.6675 3.23331 20.5449V18.2945C3.23331 16.2934 4.8613 14.6655 6.86238 14.6655H33.1376C35.1386 14.6655 36.7666 16.2934 36.7666 18.2945V20.5449H36.7667Z" fill="url(#paint0_linear_45_23919)"/>
<defs>
<linearGradient id="paint0_linear_45_23919" x1="29.9014" y1="7.8344" x2="11.3076" y2="45.0813" gradientUnits="userSpaceOnUse">
<stop offset="0.216119" stop-color="#F59C36"/>
<stop offset="0.859418" stop-color="#DB8C30"/>
</linearGradient>
</defs>
</svg>
