<svg width="74" height="74" viewBox="0 0 74 74" fill="none" xmlns="http://www.w3.org/2000/svg">
<g clip-path="url(#clip0_2973_75)">
<path d="M55.5 36.9999L27.75 55.4998V18.5L55.5 36.9999ZM37 0.00689697C16.5928 0.00689697 0.00683594 16.5929 0.00683594 37C0.00683594 57.4071 16.5928 73.9931 37 73.9931C57.4071 73.9931 73.9931 57.4071 73.9931 37C73.9931 16.5929 57.4071 0.00689697 37 0.00689697ZM37 4.61814C54.9076 4.61814 69.3818 19.0924 69.3818 37C69.3818 54.9075 54.9076 69.3818 37 69.3818C19.0923 69.3818 4.61808 54.9075 4.61808 37C4.61808 19.0924 19.0923 4.61814 37 4.61814Z" fill="#797878"/>
</g>
<defs>
<clipPath id="clip0_2973_75">
<rect width="74" height="74" fill="white"/>
</clipPath>
</defs>
</svg>
