<svg width="40" height="40" viewBox="0 0 40 40" fill="none" xmlns="http://www.w3.org/2000/svg">
<circle cx="20" cy="20" r="20" transform="rotate(180 20 20)" fill="url(#paint0_linear_82_315)"/>
<path d="M23.3516 27.6531C23.4886 27.5098 23.5972 27.3395 23.6714 27.1521C23.7455 26.9647 23.7837 26.7638 23.7837 26.5609C23.7837 26.358 23.7455 26.1572 23.6714 25.9698C23.5972 25.7823 23.4886 25.6121 23.3516 25.4688L17.6186 19.4582L23.3516 13.4475C23.6279 13.1579 23.7831 12.765 23.7831 12.3554C23.7831 11.9457 23.6279 11.5529 23.3516 11.2632C23.0753 10.9736 22.7006 10.8109 22.3099 10.8109C21.9192 10.8109 21.5445 10.9736 21.2682 11.2632L14.4861 18.3738C14.3491 18.5171 14.2404 18.6873 14.1663 18.8747C14.0921 19.0621 14.054 19.263 14.054 19.4659C14.054 19.6688 14.0921 19.8697 14.1663 20.0571C14.2404 20.2445 14.3491 20.4147 14.4861 20.558L21.2682 27.6686C21.8297 28.2572 22.7753 28.2572 23.3516 27.6531Z" fill="white"/>
<defs>
<linearGradient id="paint0_linear_82_315" x1="30.4225" y1="1.97183" x2="6.76056" y2="43.9437" gradientUnits="userSpaceOnUse">
<stop offset="0.216119" stop-color="#CD7E24"/>
<stop offset="0.859418" stop-color="#DB8C30"/>
</linearGradient>
</defs>
</svg>
