<svg width="40" height="40" viewBox="0 0 40 40" fill="none" xmlns="http://www.w3.org/2000/svg">
<circle cx="20" cy="20" r="20" transform="rotate(180 20 20)" fill="#333333"/>
<path d="M23.3521 27.6531C23.489 27.5098 23.5977 27.3395 23.6719 27.1521C23.746 26.9647 23.7842 26.7638 23.7842 26.5609C23.7842 26.358 23.746 26.1572 23.6719 25.9698C23.5977 25.7823 23.489 25.6121 23.3521 25.4688L17.619 19.4582L23.3521 13.4475C23.6283 13.1579 23.7836 12.765 23.7836 12.3554C23.7836 11.9457 23.6283 11.5529 23.3521 11.2632C23.0758 10.9736 22.7011 10.8109 22.3104 10.8109C21.9197 10.8109 21.545 10.9736 21.2687 11.2632L14.4866 18.3738C14.3496 18.5171 14.2409 18.6873 14.1668 18.8747C14.0926 19.0621 14.0544 19.263 14.0544 19.4659C14.0544 19.6688 14.0926 19.8697 14.1668 20.0571C14.2409 20.2445 14.3496 20.4147 14.4866 20.558L21.2687 27.6686C21.8302 28.2572 22.7758 28.2572 23.3521 27.6531Z" fill="white"/>
</svg>
