<svg width="42" height="42" viewBox="0 0 42 42" fill="none" xmlns="http://www.w3.org/2000/svg">
<path d="M21.0876 0C26.6818 0.00277569 31.9325 2.16994 35.8806 6.10375C39.829 10.0374 42.0021 15.2668 42 20.827C41.9954 32.1876 32.8 41.4517 21.4331 41.6359L21.0881 41.6387H21.0794C17.6333 41.6375 14.2462 40.7906 11.2273 39.1822L11.0862 39.1061L0 42L2.96674 31.2148C1.13695 28.0593 0.17407 24.4787 0.175547 20.8104C0.180141 9.3358 9.5614 0 21.0876 0ZM21.0948 3.51533C11.5075 3.51533 3.71011 11.2747 3.70634 20.8122C3.70502 24.0306 4.59621 27.167 6.28523 29.8923L6.36366 30.0178L6.77709 30.6724L5.02113 37.0553L11.5995 35.3382L12.2343 35.7127C14.8605 37.2637 17.8649 38.0964 20.9324 38.1233L21.0809 38.124H21.0881C30.668 38.124 38.4653 30.3641 38.4692 20.826C38.4709 16.204 36.6649 11.8578 33.3831 8.58816C30.1014 5.31856 25.7373 3.51697 21.0948 3.51533ZM13.6841 11.1994C14.0323 11.1994 14.3814 11.2027 14.6856 11.2182C15.0065 11.2339 15.4371 11.0969 15.8611 12.1107C16.0238 12.4993 16.2712 13.0996 16.5245 13.7129L16.5788 13.8443C16.9865 14.8313 17.3941 15.8154 17.4725 15.9717C17.6029 16.2318 17.6899 16.5358 17.5158 16.8826C17.3419 17.2299 17.2545 17.4465 16.9934 17.7506C16.7321 18.0539 16.4448 18.4286 16.2097 18.6615L16.1713 18.6995L16.1332 18.7382C15.9003 18.9781 15.7054 19.253 15.9807 19.7223C16.2853 20.2431 17.3339 21.9464 18.8872 23.3251C20.883 25.0967 22.5668 25.6459 23.0893 25.9064C23.6119 26.1668 23.9167 26.1232 24.2214 25.7757C24.5264 25.4289 25.5275 24.2576 25.8759 23.7369C26.2242 23.2164 26.5725 23.3034 27.0516 23.4768C27.2792 23.5593 27.9792 23.8868 28.7073 24.2359L28.9337 24.3446C29.6627 24.6957 30.3735 25.0448 30.6219 25.1685C31.1445 25.4289 31.4929 25.5591 31.6234 25.7757C31.754 25.9929 31.754 27.0338 31.3185 28.2486C30.8831 29.4633 28.7956 30.572 27.7917 30.7215C26.8915 30.8551 25.7524 30.9109 24.5006 30.5155C23.742 30.2755 22.7684 29.9556 21.5217 29.4199C16.2802 27.1677 12.8568 21.9148 12.5957 21.568L12.578 21.5444C12.2596 21.1209 10.4619 18.6961 10.4619 16.1883C10.4619 13.629 11.812 12.3709 12.2907 11.8503C12.7698 11.3301 13.3358 11.1994 13.6841 11.1994Z" fill="#797979"/>
</svg>
