<svg width="42" height="42" viewBox="0 0 42 42" fill="none" xmlns="http://www.w3.org/2000/svg">
<g clip-path="url(#clip0_2231_407)">
<path d="M0.175547 20.8116C0.174398 24.4674 1.13695 28.0362 2.96691 31.182L0 41.9306L11.0859 39.0464C14.1404 40.6989 17.5795 41.5702 21.0789 41.5715H21.0879C32.613 41.5715 41.9951 32.2651 42 20.8282C42.002 15.2855 39.8285 10.0734 35.8805 6.15262C31.932 2.2323 26.682 0.0717371 21.0879 0.069458C9.56091 0.069458 0.180141 9.37457 0.175547 20.8116ZM6.77759 30.6403L6.36366 29.9883C4.62361 27.243 3.70519 24.0705 3.7065 20.8129C3.71011 11.3067 11.507 3.57271 21.0945 3.57271C25.7375 3.57467 30.1009 5.37057 33.3828 8.62899C36.6645 11.8877 38.4704 16.2196 38.4692 20.8269C38.4649 30.3331 30.6679 38.0681 21.0879 38.0681H21.081C17.9617 38.0664 14.9025 37.2352 12.2345 35.6645L11.5995 35.2909L5.02097 37.0023L6.77759 30.6403Z" fill="white"/>
<path d="M0.896523 20.7495C0.895539 24.2666 1.82479 27.7008 3.59174 30.7278L0.727539 41.0701L11.4297 38.295C14.3897 39.8886 17.7063 40.7236 21.0765 40.7239H21.0854C32.2113 40.7239 41.268 31.7703 41.2728 20.7652C41.2749 15.4324 39.1769 10.4179 35.3651 6.64517C31.5539 2.8728 26.4852 0.794182 21.0846 0.791748C9.95737 0.791748 0.901281 9.74484 0.896688 20.7495" fill="url(#paint0_linear_2231_407)"/>
<path d="M15.8612 12.1002C15.4698 11.2398 15.0578 11.2224 14.6855 11.2073C14.3807 11.1944 14.0322 11.1953 13.6841 11.1953C13.3356 11.1953 12.7695 11.325 12.2909 11.8417C11.8118 12.359 10.4619 13.609 10.4619 16.1513C10.4619 18.6937 12.3344 21.1508 12.5954 21.4959C12.8567 21.8404 16.2102 27.2246 21.5212 29.2959C25.9351 31.0172 26.8334 30.6749 27.7913 30.5886C28.7495 30.5026 30.8829 29.3389 31.3182 28.1322C31.7538 26.9257 31.7538 25.8915 31.6232 25.6754C31.4926 25.4601 31.1441 25.3308 30.6216 25.0725C30.099 24.8142 27.53 23.5638 27.0511 23.3914C26.572 23.219 26.2237 23.1331 25.8753 23.6505C25.5268 24.1671 24.5262 25.3308 24.2212 25.6754C23.9165 26.0208 23.6115 26.0638 23.0891 25.8054C22.5663 25.5461 20.8835 25.0011 18.887 23.2408C17.3337 21.8711 16.285 20.1796 15.9802 19.6621C15.6753 19.1455 15.9475 18.8655 16.2095 18.608C16.4443 18.3765 16.7322 18.0046 16.9937 17.703C17.2543 17.4012 17.3412 17.1859 17.5155 16.8412C17.6899 16.4963 17.6026 16.1945 17.4721 15.936C17.3412 15.6776 16.3258 13.1219 15.8612 12.1002Z" fill="white"/>
</g>
<defs>
<linearGradient id="paint0_linear_2231_407" x1="2027.99" y1="4028.63" x2="2027.99" y2="0.791748" gradientUnits="userSpaceOnUse">
<stop stop-color="#1FAF38"/>
<stop offset="1" stop-color="#60D669"/>
</linearGradient>
<clipPath id="clip0_2231_407">
<rect width="42" height="41.8611" fill="white" transform="translate(0 0.069458)"/>
</clipPath>
</defs>
</svg>
