<svg width="10" height="15" viewBox="0 0 10 15" fill="none" xmlns="http://www.w3.org/2000/svg">
<path d="M8.36155 5.77362L2.29255 1.23298C2.04482 1.04873 1.7097 0.945313 1.36039 0.945312C1.01107 0.945313 0.675955 1.04873 0.42822 1.23298C0.304291 1.32494 0.205925 1.43435 0.138798 1.5549C0.0716703 1.67545 0.0371094 1.80475 0.0371094 1.93534C0.0371094 2.06594 0.0716703 2.19524 0.138798 2.31579C0.205925 2.43633 0.304291 2.54575 0.42822 2.63771L6.51044 7.16846C6.63437 7.26043 6.73274 7.36984 6.79987 7.49039C6.86699 7.61094 6.90155 7.74024 6.90155 7.87083C6.90155 8.00142 6.86699 8.13072 6.79987 8.25127C6.73274 8.37182 6.63437 8.48123 6.51044 8.57319L0.42822 13.1039C0.179241 13.2889 0.0386695 13.5403 0.0374297 13.8028C0.0361898 14.0653 0.174384 14.3175 0.42161 14.5037C0.668836 14.69 1.00484 14.7952 1.35571 14.7961C1.70658 14.797 2.04358 14.6936 2.29255 14.5087L8.36155 9.96803C9.10438 9.41158 9.52162 8.65728 9.52162 7.87083C9.52162 7.08437 9.10438 6.33008 8.36155 5.77362Z" fill="#404040"/>
</svg>
