<svg width="30" height="31" viewBox="0 0 30 31" fill="none" xmlns="http://www.w3.org/2000/svg">
<path d="M17.65 19.7496L23.3875 14.0121C23.6203 13.7779 23.751 13.4611 23.751 13.1309C23.751 12.8006 23.6203 12.4838 23.3875 12.2496C23.2713 12.1325 23.133 12.0395 22.9807 11.976C22.8284 11.9126 22.665 11.8799 22.5 11.8799C22.335 11.8799 22.1716 11.9126 22.0193 11.976C21.8669 12.0395 21.7287 12.1325 21.6125 12.2496L15.8875 17.9996C15.7713 18.1168 15.633 18.2098 15.4807 18.2732C15.3284 18.3367 15.165 18.3694 15 18.3694C14.835 18.3694 14.6716 18.3367 14.5193 18.2732C14.3669 18.2098 14.2287 18.1168 14.1125 17.9996L8.38748 12.2496C8.15376 12.0143 7.83611 11.8814 7.5044 11.8802C7.1727 11.879 6.85411 12.0097 6.61873 12.2434C6.38335 12.4771 6.25046 12.7948 6.24929 13.1265C6.24812 13.4582 6.37876 13.7768 6.61249 14.0121L12.35 19.7496C13.0531 20.4519 14.0062 20.8463 15 20.8463C15.9937 20.8463 16.9469 20.4519 17.65 19.7496Z" fill="#404040"/>
</svg>
