<svg width="61" height="58" viewBox="0 0 61 58" fill="none" xmlns="http://www.w3.org/2000/svg">
<path d="M30.4997 54.9791C15.4276 54.9791 3.17676 43.3307 3.17676 28.9999C3.17676 14.6691 15.4276 3.02075 30.4997 3.02075C45.5718 3.02075 57.8226 14.6691 57.8226 28.9999C57.8226 43.3307 45.5718 54.9791 30.4997 54.9791ZM30.4997 6.64575C17.5372 6.64575 6.98926 16.6749 6.98926 28.9999C6.98926 41.3249 17.5372 51.3541 30.4997 51.3541C43.4622 51.3541 54.0101 41.3249 54.0101 28.9999C54.0101 16.6749 43.4622 6.64575 30.4997 6.64575Z" fill="#404040"/>
<path d="M23.3071 37.6518C22.8242 37.6518 22.3413 37.4826 21.96 37.1201C21.223 36.4193 21.223 35.2593 21.96 34.5584L36.3459 20.8801C37.083 20.1793 38.303 20.1793 39.04 20.8801C39.7771 21.581 39.7771 22.7409 39.04 23.4418L24.6542 37.1201C24.2984 37.4826 23.79 37.6518 23.3071 37.6518Z" fill="#404040"/>
<path d="M37.693 37.6518C37.21 37.6518 36.7271 37.4826 36.3459 37.1201L21.96 23.4418C21.223 22.7409 21.223 21.581 21.96 20.8801C22.6971 20.1793 23.9171 20.1793 24.6542 20.8801L39.04 34.5584C39.7771 35.2593 39.7771 36.4193 39.04 37.1201C38.6588 37.4826 38.1759 37.6518 37.693 37.6518Z" fill="#404040"/>
</svg>
