<svg width="32" height="32" viewBox="0 0 32 32" fill="none" xmlns="http://www.w3.org/2000/svg">
<path fill-rule="evenodd" clip-rule="evenodd" d="M15.5049 0C6.94393 0 0.00390625 6.94003 0.00390625 15.501C0.00390625 24.0619 6.94393 31.002 15.5049 31.002C24.0658 31.002 31.0059 24.0619 31.0059 15.501C31.0059 6.94003 24.0658 0 15.5049 0ZM12.0964 7.28432C12.9782 7.24419 13.26 7.23438 15.5053 7.23438H15.5027C17.7486 7.23438 18.0294 7.24419 18.9112 7.28432C19.7913 7.32463 20.3924 7.46396 20.9195 7.66841C21.4637 7.87939 21.9236 8.16186 22.3835 8.62173C22.8433 9.08125 23.1258 9.5425 23.3377 10.0862C23.5409 10.6119 23.6804 11.2127 23.7217 12.0928C23.7614 12.9746 23.7717 13.2564 23.7717 15.5017C23.7717 17.7469 23.7614 18.028 23.7217 18.9098C23.6804 19.7896 23.5409 20.3905 23.3377 20.9164C23.1258 21.4599 22.8433 21.9212 22.3835 22.3807C21.9241 22.8406 21.4636 23.1237 20.92 23.3349C20.394 23.5393 19.7925 23.6787 18.9124 23.719C18.0306 23.7591 17.7497 23.7689 15.5042 23.7689C13.2592 23.7689 12.9775 23.7591 12.0957 23.719C11.2158 23.6787 10.6148 23.5393 10.0888 23.3349C9.54542 23.1237 9.08418 22.8406 8.62483 22.3807C8.16513 21.9212 7.88267 21.4599 7.67134 20.9162C7.46707 20.3905 7.32773 19.7898 7.28725 18.9097C7.24729 18.0278 7.2373 17.7469 7.2373 15.5017C7.2373 13.2564 7.24764 12.9744 7.28708 12.0926C7.32669 11.2128 7.46621 10.6119 7.67116 10.0861C7.88301 9.54249 8.16548 9.08125 8.62535 8.62173C9.08487 8.16203 9.54611 7.87957 10.0899 7.66841C10.6155 7.46396 11.2163 7.32463 12.0964 7.28432Z" fill="#202020"/>
<path fill-rule="evenodd" clip-rule="evenodd" d="M14.7643 8.72472C14.9083 8.7245 15.0632 8.72457 15.2304 8.72464L15.506 8.72472C17.7133 8.72472 17.9749 8.73265 18.8466 8.77226C19.6527 8.80912 20.0902 8.94381 20.3816 9.05696C20.7674 9.20681 21.0425 9.38593 21.3316 9.67529C21.621 9.96464 21.8001 10.2402 21.9503 10.626C22.0635 10.9171 22.1983 11.3546 22.235 12.1606C22.2746 13.0321 22.2832 13.2939 22.2832 15.5003C22.2832 17.7066 22.2746 17.9684 22.235 18.8399C22.1981 19.646 22.0635 20.0834 21.9503 20.3745C21.8005 20.7603 21.621 21.035 21.3316 21.3242C21.0423 21.6136 20.7676 21.7927 20.3816 21.9425C20.0905 22.0562 19.6527 22.1906 18.8466 22.2274C17.9751 22.267 17.7133 22.2757 15.506 22.2757C13.2984 22.2757 13.0368 22.267 12.1653 22.2274C11.3592 22.1902 10.9218 22.0555 10.6302 21.9424C10.2444 21.7925 9.96878 21.6134 9.67942 21.3241C9.39007 21.0347 9.21095 20.7598 9.06076 20.3738C8.9476 20.0828 8.81274 19.6453 8.77605 18.8392C8.73644 17.9677 8.72852 17.7059 8.72852 15.4982C8.72852 13.2905 8.73644 13.0301 8.77605 12.1586C8.81291 11.3525 8.9476 10.915 9.06076 10.6236C9.2106 10.2378 9.39007 9.96223 9.67942 9.67288C9.96878 9.38352 10.2444 9.2044 10.6302 9.05421C10.9216 8.94053 11.3592 8.80619 12.1653 8.76916C12.9279 8.73471 13.2235 8.72438 14.7643 8.72266V8.72472ZM19.9188 10.098C19.3711 10.098 18.9268 10.5419 18.9268 11.0897C18.9268 11.6374 19.3711 12.0818 19.9188 12.0818C20.4665 12.0818 20.9109 11.6374 20.9109 11.0897C20.9109 10.542 20.4665 10.0977 19.9188 10.0977V10.098ZM11.2607 15.5015C11.2607 13.1569 13.1616 11.256 15.5062 11.2559C17.8508 11.2559 19.7512 13.1568 19.7512 15.5015C19.7512 17.8461 17.851 19.7462 15.5063 19.7462C13.1617 19.7462 11.2607 17.8461 11.2607 15.5015Z" fill="#202020"/>
<path fill-rule="evenodd" clip-rule="evenodd" d="M15.5058 12.7461C17.0276 12.7461 18.2615 13.9798 18.2615 15.5019C18.2615 17.0237 17.0276 18.2576 15.5058 18.2576C13.9837 18.2576 12.75 17.0237 12.75 15.5019C12.75 13.9798 13.9837 12.7461 15.5058 12.7461V12.7461Z" fill="#202020"/>
</svg>
