<svg width="32" height="31" viewBox="0 0 32 31" fill="none" xmlns="http://www.w3.org/2000/svg">
<path fill-rule="evenodd" clip-rule="evenodd" d="M15.502 31C24.0624 31 31.002 24.0604 31.002 15.5C31.002 6.93959 24.0624 0 15.502 0C6.94154 0 0.00195312 6.93959 0.00195312 15.5C0.00195312 24.0604 6.94154 31 15.502 31Z" fill="#2F2F2F"/>
<path fill-rule="evenodd" clip-rule="evenodd" d="M16.0127 24.1235H16.0089C14.4664 24.123 12.9507 23.7359 11.6045 23.0016L6.71851 24.2833L8.02607 19.5073C7.2195 18.1095 6.79509 16.524 6.79578 14.8995C6.7978 9.81776 10.9325 5.68333 16.0127 5.68333C18.4783 5.6844 20.7924 6.64425 22.5325 8.38641C24.2726 10.1285 25.2304 12.4441 25.2295 14.9068C25.2274 19.9874 21.0944 24.1214 16.0127 24.1235ZM11.8308 21.3331L12.1106 21.4991C13.2867 22.1971 14.635 22.5664 16.0096 22.5669H16.0127C20.235 22.5669 23.6716 19.1303 23.6733 14.9063C23.6741 12.8593 22.878 10.9347 21.4317 9.48664C19.9853 8.03862 18.0619 7.24078 16.0157 7.24007C11.7902 7.24007 8.3536 10.6763 8.35192 14.9001C8.35133 16.3476 8.75634 17.7573 9.52318 18.9769L9.70532 19.2668L8.93143 22.0937L11.8308 21.3331ZM20.6561 17.0985C20.5985 17.0025 20.445 16.9448 20.2147 16.8295C19.9844 16.7142 18.8522 16.1572 18.6411 16.0803C18.43 16.0034 18.2764 15.965 18.1229 16.1955C17.9694 16.426 17.5281 16.9448 17.3937 17.0985C17.2594 17.2522 17.125 17.2715 16.8948 17.1562C16.6645 17.0409 15.9225 16.7977 15.0428 16.0131C14.3582 15.4024 13.896 14.6483 13.7617 14.4177C13.6273 14.1872 13.7473 14.0626 13.8626 13.9478C13.9662 13.8445 14.0929 13.6787 14.2081 13.5443C14.3232 13.4098 14.3616 13.3137 14.4384 13.1601C14.5151 13.0064 14.4768 12.8719 14.4192 12.7566C14.3616 12.6414 13.901 11.5078 13.7091 11.0467C13.5222 10.5976 13.3323 10.6584 13.191 10.6513C13.0568 10.6446 12.9031 10.6432 12.7496 10.6432C12.5961 10.6432 12.3465 10.7008 12.1355 10.9314C11.9244 11.1619 11.3294 11.7191 11.3294 12.8526C11.3294 13.9862 12.1546 15.0812 12.2698 15.2349C12.3849 15.3887 13.8937 17.7148 16.2039 18.7123C16.7534 18.9496 17.1823 19.0913 17.5168 19.1974C18.0685 19.3727 18.5706 19.348 18.9673 19.2887C19.4098 19.2226 20.3298 18.7316 20.5218 18.1937C20.7136 17.6556 20.7136 17.1945 20.6561 17.0985Z" fill="#FDFDFD"/>
</svg>
