<svg width="101" height="105" viewBox="0 0 101 105" fill="none" xmlns="http://www.w3.org/2000/svg">
<path fill-rule="evenodd" clip-rule="evenodd" d="M99.5518 49.8153L95.0423 48.0184V45.1612C95.1057 27.625 83.165 11.9789 65.3007 6.19197V2.16524C65.3007 0.969994 64.2539 0 62.9649 0H37.9655C36.6764 0 35.6296 0.969994 35.6296 2.16524V6.21324C17.7653 12.0002 5.82464 27.6463 5.88799 45.1825V48.0617L1.42528 49.8153C0.56061 50.1535 0 50.9394 0 51.8074V63.1736C0 64.3681 1.04679 65.3381 2.33667 65.3381H5.37409V69.6686C5.37409 70.8631 6.42009 71.8331 7.70997 71.8331H16.0977C16.8943 74.5435 18.0646 77.1505 19.5786 79.5835L13.6447 85.0828C12.738 85.9266 12.738 87.2906 13.6447 88.1352L23.5741 97.3362C24.4847 98.1763 25.9567 98.1763 26.8681 97.3362L32.802 91.8376C35.4213 93.2405 38.2252 94.3227 41.143 95.0631V102.835C41.143 104.03 42.1898 105 43.4797 105H57.4973C58.7872 105 59.834 104.03 59.834 102.835V95.0631C62.759 94.3249 65.5715 93.2427 68.198 91.8376L74.1327 97.3362C75.0433 98.1763 76.5153 98.1763 77.4267 97.3362L87.3561 88.1352C88.2628 87.2906 88.2628 85.9266 87.3561 85.0828L81.4214 79.5835C82.9354 77.1505 84.1065 74.5435 84.9031 71.8331H93.29C94.5799 71.8331 95.6267 70.8631 95.6267 69.6686V65.3381H98.6641C99.954 65.3381 101 64.3681 101 63.1736V51.8074C100.995 50.9328 100.424 50.1469 99.5518 49.8153ZM40.2553 4.35173H60.6282V40.5276H40.302L40.2553 4.35173ZM83.1974 67.5034H90.977L90.9541 65.3381H69.5765C68.5107 73.487 61.5791 79.9086 52.7852 80.8977C42.2294 82.0863 32.6341 75.1195 31.3537 65.3381H9.99991V67.5034H17.7795C18.9008 67.4792 19.8795 68.1982 20.1162 69.213C20.931 72.5925 22.403 75.8056 24.4617 78.6957C25.0619 79.5513 24.9336 80.679 24.1577 81.4017L18.5737 86.576L25.1854 92.7034L30.7694 87.5291C31.5501 86.8101 32.7671 86.6912 33.6904 87.2474C36.8276 89.1397 40.3116 90.4817 43.9698 91.2095C45.0657 91.4282 45.8417 92.3351 45.8155 93.374V100.735H55.1606V93.4393C55.1353 92.4004 55.9105 91.4928 57.0064 91.2741C60.6654 90.5448 64.1486 89.202 67.2866 87.3127C68.2098 86.7558 69.4268 86.8754 70.2068 87.5937L75.7907 92.768L82.4729 86.6193L76.889 81.445C76.1138 80.7223 75.9847 79.5946 76.5857 78.739C78.6254 75.8312 80.0737 72.6036 80.8607 69.213C81.0967 68.1982 82.0762 67.4792 83.1974 67.5034ZM36.1197 65.3381H64.8802C63.595 72.7034 56.1092 77.709 48.1617 76.5182C41.961 75.5892 37.0992 71.0841 36.0968 65.3381H36.1197ZM4.64948 61.0085H96.3503V53.2793L91.8417 51.4824C90.977 51.1449 90.4164 50.3591 90.4164 49.4911V45.1606C90.4821 30.0214 80.5361 16.3864 65.3473 10.8027V42.693C65.3473 43.8875 64.3006 44.8575 63.0107 44.8575H37.9654C36.6755 44.8575 35.6295 43.8875 35.6295 42.693V10.8027C20.4661 16.3886 10.5319 29.9972 10.5834 45.1173V49.447C10.5834 50.3158 10.0228 51.1016 9.15811 51.4391L4.64948 53.236V61.0085Z" fill="#F1BC28"/>
</svg>
