<svg width="92" height="93" viewBox="0 0 92 93" fill="none" xmlns="http://www.w3.org/2000/svg">
<path fill-rule="evenodd" clip-rule="evenodd" d="M30.3362 91.1323L30.3362 25.9575L66.6742 25.9575C67.8834 25.9575 68.8647 25.1215 68.8647 24.0905V1.86767C68.8647 0.836686 67.8834 0 66.6742 0L2.19041 0C0.981171 0 -0.000175476 0.836686 -0.000175476 1.86767L-0.000175476 91.1323C-0.000175476 92.1633 0.981171 93 2.19041 93H28.1456C29.3548 93 30.3362 92.1633 30.3362 91.1323ZM64.4835 3.73466V22.2226L29.0438 22.2226L7.46908 3.73466L64.4835 3.73466ZM4.38105 6.38659L4.38105 89.2651L25.9558 89.5265L25.9558 83.3634H20.5235C19.3143 83.3634 18.3329 82.5274 18.3329 81.4964C18.3329 80.4654 19.3143 79.6287 20.5235 79.6287H25.9558V75.894H20.5235C19.3143 75.894 18.3329 75.0573 18.3329 74.0264C18.3329 72.9954 19.3143 72.1587 20.5235 72.1587H25.9558V68.424H15.8803C14.6711 68.424 13.6897 67.5873 13.6897 66.5563C13.6897 65.526 14.6711 64.6893 15.8803 64.6893H25.9558V60.954H20.5235C19.3143 60.954 18.3329 60.1173 18.3329 59.0869C18.3329 58.0559 19.3143 57.2193 20.5235 57.2193H25.9558V53.4846H20.5235C19.3143 53.4846 18.3329 52.6479 18.3329 51.6169C18.3329 50.5859 19.3143 49.7492 20.5235 49.7492H25.9558V46.0145H15.8803C14.6711 46.0145 13.6897 45.1778 13.6897 44.1469C13.6897 43.1159 14.6711 42.2798 15.8803 42.2798H25.9558V38.5445H20.5235C19.3143 38.5445 18.3329 37.7078 18.3329 36.6768C18.3329 35.6465 19.3143 34.8098 20.5235 34.8098H25.9558V31.0745H20.5235C19.3143 31.0745 18.3329 30.2384 18.3329 29.2074C18.3329 28.1764 19.3143 27.3398 20.5235 27.3398H25.9558V24.7816L4.38105 6.38659Z" fill="#F1BC28"/>
<path fill-rule="evenodd" clip-rule="evenodd" d="M25.2181 43.4427L25.218 43.4587V43.4372L25.2181 43.4427ZM25.6866 44.6872C25.3884 44.3282 25.2242 43.8916 25.2181 43.4427C25.22 43.2148 25.262 42.9891 25.3427 42.7738C25.7549 41.6659 27.0858 41.0707 28.3112 41.4455L54.7659 49.6233C54.8365 49.7504 54.9771 49.7504 54.9771 49.7504C55.1224 49.7949 55.2654 49.8502 55.3988 49.9198L87.946 71.4227C90.3855 72.7977 91.9039 75.1814 92 77.7783C91.9111 79.6451 91.1725 81.4393 89.8908 82.9054L87.923 85.3839C86.9335 86.6849 85.5954 87.7331 84.0325 88.4346C81.0665 89.5848 77.6335 89.0808 75.2225 87.1422L42.769 65.5546C42.6973 65.5156 42.6607 65.4689 42.6218 65.4191C42.597 65.3873 42.5712 65.3543 42.5347 65.3213C42.441 65.2366 42.2536 65.1095 42.2536 65.1095L25.6866 44.6872ZM85.1808 74.8976C86.3735 75.505 87.1748 76.5899 87.3368 77.8205C87.2383 78.7891 86.8143 79.706 86.1186 80.4477L84.15 82.863C83.6299 83.5788 82.9223 84.1704 82.0877 84.579L82.0716 84.5854C81.6339 84.7617 80.3479 85.2797 78.0107 83.7317L75.9023 82.3331L79.4869 77.9268L83.0486 73.499L85.1808 74.8976ZM77.0737 73.6902L79.2766 70.9783L54.5784 54.6019L47.4083 63.4151L72.1064 79.7916L74.3086 77.1006L55.2352 64.3894C55.1526 64.3406 55.0756 64.2896 55.0009 64.2322C54.0075 63.4847 53.8733 62.1479 54.7007 61.2497C55.5274 60.3515 57.0061 60.2287 57.9995 60.9783L77.0737 73.6902ZM50.291 52.6949L44.1278 60.2796L40.3088 55.5761L44.1746 50.8095L50.291 52.6949ZM37.4032 51.9955L39.5354 49.3692L33.8646 47.6317L37.4032 51.9955Z" fill="#F1BC28"/>
</svg>
