<svg width="88" height="86" viewBox="0 0 88 86" fill="none" xmlns="http://www.w3.org/2000/svg">
<path fill-rule="evenodd" clip-rule="evenodd" d="M72.3979 38.8335L72.3979 84.2423C72.3979 85.2126 71.4671 86 70.3202 86H59.743C58.596 86 57.6652 85.2126 57.6652 84.2417L57.6652 41.0308C57.6652 40.0605 58.596 39.2731 59.743 39.2731L62.341 39.2731L62.341 15.2768C62.341 14.3065 63.2717 13.5185 64.4187 13.5185L77.0525 13.5185C79.754 13.5185 81.6451 11.3564 82.7462 9.59864L70.6525 9.59864C69.5056 9.59864 68.5748 8.81121 68.5748 7.84033V3.51603L36.9889 3.51603L11.9283 12.8859L44.5112 12.8859C45.6581 12.8859 46.5896 13.6734 46.5896 14.6437V16.2614L49.1038 16.2614C50.2507 16.2614 51.1815 17.0488 51.1815 18.0191C51.1815 18.9894 50.2507 19.7768 49.1038 19.7768L46.5896 19.7768V24.0314L49.1038 24.0314C50.2507 24.0314 51.1815 24.8195 51.1815 25.7898C51.1815 26.76 50.2507 27.5475 49.1038 27.5475L46.5896 27.5475V31.8021L49.1038 31.8021C50.2507 31.8021 51.1815 32.5895 51.1815 33.5598C51.1815 34.5301 50.2507 35.3175 49.1038 35.3175H46.5896V39.2731H48.3138C49.4607 39.2731 50.3922 40.0605 50.3922 41.0308L50.3922 84.2417C50.3922 85.212 49.4607 85.9994 48.3138 85.9994H36.3651C35.2182 85.9994 34.2874 85.212 34.2874 84.2417L34.2874 57.6085C28.1444 55.0979 21.6198 53.3241 14.8995 52.3348C4.34339 50.8755 1.5588 44.336 1.5588 41.0838C1.5588 40.113 2.48959 39.3255 3.63651 39.3255L42.4334 39.3255V16.4723L2.07841 16.4723C1.08074 16.4913 0.209808 15.9076 0 15.0832V14.7139C0.0063324 14.0194 0.494957 13.3922 1.2469 13.1147L35.7209 0.158439C35.9828 0.0577764 36.2658 0.0035738 36.5524 0L70.6525 0C71.7994 0 72.7309 0.787428 72.7302 1.75772V6.08261L85.8216 5.95991C86.0462 5.95276 86.2729 5.9754 86.4891 6.02841C87.5902 6.3024 88.2218 7.27805 87.9 8.20962C87.7754 8.61406 84.7831 17 77.0736 17L66.5386 17V27.2663L78.1339 27.2663C86.4454 27.6356 87.9831 36.4778 87.9831 36.8471C87.9958 36.9281 88 37.0109 88 37.0913C87.9916 38.0616 87.0523 38.8425 85.9054 38.8335H72.3979ZM46.2362 46.3054L46.2362 42.7894L6.10997 42.7715C6.87881 44.7758 9.08113 47.9047 15.5853 48.8011C23.1744 49.9262 30.5157 52.0181 37.3628 55.007C38.0303 55.3161 38.4457 55.9105 38.4435 56.5538L38.4435 82.4488H46.2362V80.9014H43.7219C42.5743 80.9014 41.6435 80.1139 41.6435 79.1437C41.6435 78.1734 42.5743 77.386 43.7219 77.386H46.2362V73.1314H43.7219C42.5743 73.1314 41.6435 72.3439 41.6435 71.3737C41.6435 70.4034 42.5743 69.6154 43.7219 69.6154H46.2362V65.3614H43.7219C42.5743 65.3614 41.6435 64.574 41.6435 63.6037C41.6435 62.6328 42.5743 61.8454 43.7219 61.8454H46.2362V57.5914H43.7219C42.5743 57.5914 41.6435 56.804 41.6435 55.8331C41.6435 54.8628 42.5743 54.0754 43.7219 54.0754H46.2362V49.8214H43.7219C42.5743 49.8214 41.6435 49.0334 41.6435 48.0631C41.6435 47.0928 42.5743 46.3054 43.7219 46.3054H46.2362ZM66.4963 39.2733L66.4963 30.6943L77.9882 30.6943C81.0009 30.8349 82.5182 33.3664 83.2455 35.2474H70.299C69.152 35.2474 68.2213 36.0348 68.2213 37.0057V39.203L66.4963 39.2733ZM61.8213 42.7892L61.8213 82.4839H68.2417L68.2417 42.7892H61.8213Z" fill="#F1BC28"/>
</svg>
