<svg width="24" height="24" viewBox="0 0 24 24" fill="none" xmlns="http://www.w3.org/2000/svg">
<path d="M3.66552 11.1114C3.25132 11.1125 2.8459 11.2309 2.49618 11.4529C2.14646 11.6748 1.86673 11.9913 1.68935 12.3656C1.51197 12.7399 1.44419 13.1568 1.49385 13.568C1.54351 13.9792 1.70858 14.368 1.96997 14.6893L7.54213 21.5152C7.7408 21.7619 7.99547 21.9576 8.28498 22.0861C8.57449 22.2146 8.89048 22.2722 9.20671 22.2541C9.88305 22.2177 10.4937 21.8559 10.883 21.2611L22.4578 2.61989C22.4597 2.61677 22.4616 2.61369 22.4637 2.61065C22.5723 2.4439 22.537 2.11344 22.3129 1.90584C22.2513 1.84883 22.1787 1.80503 22.0996 1.77714C22.0204 1.74925 21.9364 1.73785 21.8527 1.74366C21.7689 1.74947 21.6873 1.77235 21.6128 1.8109C21.5382 1.84946 21.4724 1.90286 21.4192 1.96782C21.4151 1.97293 21.4108 1.97796 21.4064 1.98292L9.73309 15.172C9.68868 15.2222 9.63473 15.2631 9.57438 15.2922C9.51404 15.3214 9.4485 15.3383 9.38158 15.3419C9.31465 15.3455 9.24768 15.3358 9.18454 15.3133C9.1214 15.2908 9.06336 15.256 9.01379 15.2109L5.13963 11.6854C4.73727 11.3166 4.21137 11.1118 3.66552 11.1114Z" fill="url(#paint0_linear_419_37)"/>
<defs>
<linearGradient id="paint0_linear_419_37" x1="17.484" y1="2.7535" x2="5.51024" y2="24.5412" gradientUnits="userSpaceOnUse">
<stop offset="0.216119" stop-color="#F59C36"/>
<stop offset="0.859418" stop-color="#DB8C30"/>
</linearGradient>
</defs>
</svg>
